<mxfile host="Electron" agent="Mozilla/5.0 (Windows NT 10.0; Win64; x64) AppleWebKit/537.36 (KHTML, like Gecko) draw.io/26.0.4 Chrome/128.0.6613.186 Electron/32.2.5 Safari/537.36" version="26.0.4">
  <diagram name="Page-1" id="nDb4Prmc-oKWPEFUuwgC">
    <mxGraphModel dx="3274" dy="836" grid="1" gridSize="11" guides="1" tooltips="1" connect="1" arrows="1" fold="1" page="1" pageScale="1" pageWidth="1200" pageHeight="1600" math="0" shadow="0">
      <root>
        <mxCell id="0" />
        <mxCell id="1" parent="0" />
        <mxCell id="LQhzM-H32RQj3qDm_IvA-1" value="Internet" style="ellipse;shape=cloud;whiteSpace=wrap;html=1;" parent="1" vertex="1">
          <mxGeometry x="1190" y="10" width="120" height="80" as="geometry" />
        </mxCell>
        <mxCell id="LQhzM-H32RQj3qDm_IvA-3" value="" style="image;html=1;image=img/lib/clip_art/networking/Wireless_Router_128x128.png" parent="1" vertex="1">
          <mxGeometry x="1076.62" y="72" width="80" height="80" as="geometry" />
        </mxCell>
        <mxCell id="LQhzM-H32RQj3qDm_IvA-8" value="" style="endArrow=none;html=1;rounded=0;exitX=1;exitY=0.5;exitDx=0;exitDy=0;entryX=0.242;entryY=0.875;entryDx=0;entryDy=0;entryPerimeter=0;" parent="1" source="LQhzM-H32RQj3qDm_IvA-3" target="LQhzM-H32RQj3qDm_IvA-1" edge="1">
          <mxGeometry width="50" height="50" relative="1" as="geometry">
            <mxPoint x="866.62" y="202" as="sourcePoint" />
            <mxPoint x="1189.7835631891217" y="83.57408869503843" as="targetPoint" />
            <Array as="points" />
          </mxGeometry>
        </mxCell>
        <mxCell id="LQhzM-H32RQj3qDm_IvA-9" value="Home Router&lt;div&gt;192.168.0.1/24&lt;/div&gt;" style="text;html=1;align=center;verticalAlign=middle;resizable=0;points=[];autosize=1;strokeColor=none;fillColor=none;" parent="1" vertex="1">
          <mxGeometry x="1067.62" y="145" width="100" height="40" as="geometry" />
        </mxCell>
        <mxCell id="LQhzM-H32RQj3qDm_IvA-10" value="" style="image;points=[];aspect=fixed;html=1;align=center;shadow=0;dashed=0;image=img/lib/allied_telesis/computer_and_terminals/Server_Desktop.svg;" parent="1" vertex="1">
          <mxGeometry x="897.4" y="130" width="81.62" height="103.46" as="geometry" />
        </mxCell>
        <mxCell id="LQhzM-H32RQj3qDm_IvA-11" value="Lab PC" style="text;html=1;align=center;verticalAlign=middle;resizable=0;points=[];autosize=1;strokeColor=none;fillColor=none;" parent="1" vertex="1">
          <mxGeometry x="908.21" y="233.46" width="60" height="30" as="geometry" />
        </mxCell>
        <mxCell id="LQhzM-H32RQj3qDm_IvA-12" value="" style="image;sketch=0;aspect=fixed;html=1;points=[];align=center;fontSize=12;image=img/lib/mscae/NetworkInterfaceCard.svg;" parent="1" vertex="1">
          <mxGeometry x="879.8" y="170" width="17.6" height="20" as="geometry" />
        </mxCell>
        <mxCell id="LQhzM-H32RQj3qDm_IvA-14" value="" style="endArrow=none;html=1;rounded=0;entryX=0;entryY=0.75;entryDx=0;entryDy=0;" parent="1" source="LQhzM-H32RQj3qDm_IvA-10" target="LQhzM-H32RQj3qDm_IvA-3" edge="1">
          <mxGeometry width="50" height="50" relative="1" as="geometry">
            <mxPoint x="990" y="165" as="sourcePoint" />
            <mxPoint x="1064.62" y="137" as="targetPoint" />
            <Array as="points" />
          </mxGeometry>
        </mxCell>
        <mxCell id="LQhzM-H32RQj3qDm_IvA-15" value="Bridged" style="text;html=1;align=center;verticalAlign=middle;resizable=0;points=[];autosize=1;strokeColor=none;fillColor=none;" parent="1" vertex="1">
          <mxGeometry x="760" y="140" width="60" height="30" as="geometry" />
        </mxCell>
        <mxCell id="LQhzM-H32RQj3qDm_IvA-19" value="" style="shape=link;html=1;rounded=0;fillColor=#ffe6cc;strokeColor=#d79b00;" parent="1" edge="1">
          <mxGeometry width="100" relative="1" as="geometry">
            <mxPoint x="680" y="160" as="sourcePoint" />
            <mxPoint x="680" y="790" as="targetPoint" />
          </mxGeometry>
        </mxCell>
        <mxCell id="LQhzM-H32RQj3qDm_IvA-20" value="&lt;b&gt;pfSense Firewall&amp;nbsp;&lt;/b&gt;" style="text;html=1;align=center;verticalAlign=middle;resizable=0;points=[];autosize=1;strokeColor=none;fillColor=none;" parent="1" vertex="1">
          <mxGeometry x="620" y="122" width="120" height="30" as="geometry" />
        </mxCell>
        <mxCell id="LQhzM-H32RQj3qDm_IvA-21" value="" style="image;sketch=0;aspect=fixed;html=1;points=[];align=center;fontSize=12;image=img/lib/mscae/NetworkInterfaceCard.svg;" parent="1" vertex="1">
          <mxGeometry x="700" y="172.28" width="16.62" height="18.89" as="geometry" />
        </mxCell>
        <mxCell id="LQhzM-H32RQj3qDm_IvA-23" value="" style="endArrow=none;html=1;rounded=0;exitX=0.963;exitY=0.303;exitDx=0;exitDy=0;exitPerimeter=0;entryX=0.011;entryY=0.5;entryDx=0;entryDy=0;entryPerimeter=0;" parent="1" source="LQhzM-H32RQj3qDm_IvA-21" target="LQhzM-H32RQj3qDm_IvA-12" edge="1">
          <mxGeometry width="50" height="50" relative="1" as="geometry">
            <mxPoint x="790" y="220" as="sourcePoint" />
            <mxPoint x="840" y="170" as="targetPoint" />
          </mxGeometry>
        </mxCell>
        <mxCell id="LQhzM-H32RQj3qDm_IvA-24" value="WAN" style="text;html=1;align=center;verticalAlign=middle;resizable=0;points=[];autosize=1;strokeColor=none;fillColor=none;" parent="1" vertex="1">
          <mxGeometry x="683.31" y="200" width="50" height="30" as="geometry" />
        </mxCell>
        <mxCell id="LQhzM-H32RQj3qDm_IvA-25" value="" style="image;sketch=0;aspect=fixed;html=1;points=[];align=center;fontSize=12;image=img/lib/mscae/NetworkInterfaceCard.svg;" parent="1" vertex="1">
          <mxGeometry x="595.61" y="172.28" width="24.39" height="27.72" as="geometry" />
        </mxCell>
        <mxCell id="LQhzM-H32RQj3qDm_IvA-26" value="" style="image;sketch=0;aspect=fixed;html=1;points=[];align=center;fontSize=12;image=img/lib/mscae/NetworkInterfaceCard.svg;" parent="1" vertex="1">
          <mxGeometry x="595.61" y="290" width="24.39" height="27.72" as="geometry" />
        </mxCell>
        <mxCell id="LQhzM-H32RQj3qDm_IvA-27" value="" style="image;sketch=0;aspect=fixed;html=1;points=[];align=center;fontSize=12;image=img/lib/mscae/NetworkInterfaceCard.svg;" parent="1" vertex="1">
          <mxGeometry x="595.61" y="410" width="24.39" height="27.72" as="geometry" />
        </mxCell>
        <mxCell id="LQhzM-H32RQj3qDm_IvA-28" value="" style="image;sketch=0;aspect=fixed;html=1;points=[];align=center;fontSize=12;image=img/lib/mscae/NetworkInterfaceCard.svg;" parent="1" vertex="1">
          <mxGeometry x="595.61" y="520" width="24.39" height="27.72" as="geometry" />
        </mxCell>
        <mxCell id="LQhzM-H32RQj3qDm_IvA-29" value="Prod" style="text;html=1;align=center;verticalAlign=middle;resizable=0;points=[];autosize=1;strokeColor=none;fillColor=none;" parent="1" vertex="1">
          <mxGeometry x="575" y="210" width="50" height="30" as="geometry" />
        </mxCell>
        <mxCell id="LQhzM-H32RQj3qDm_IvA-30" value="Test" style="text;html=1;align=center;verticalAlign=middle;resizable=0;points=[];autosize=1;strokeColor=none;fillColor=none;" parent="1" vertex="1">
          <mxGeometry x="570" y="330" width="50" height="30" as="geometry" />
        </mxCell>
        <mxCell id="LQhzM-H32RQj3qDm_IvA-31" value="Text" style="text;html=1;align=center;verticalAlign=middle;resizable=0;points=[];autosize=1;strokeColor=none;fillColor=none;" parent="1" vertex="1">
          <mxGeometry x="575" y="448" width="50" height="30" as="geometry" />
        </mxCell>
        <mxCell id="LQhzM-H32RQj3qDm_IvA-33" value="" style="endArrow=none;html=1;rounded=0;" parent="1" edge="1">
          <mxGeometry width="50" height="50" relative="1" as="geometry">
            <mxPoint x="-1" as="sourcePoint" />
            <mxPoint x="-1" y="352" as="targetPoint" />
          </mxGeometry>
        </mxCell>
        <mxCell id="LQhzM-H32RQj3qDm_IvA-34" value="" style="endArrow=none;html=1;rounded=0;" parent="1" edge="1">
          <mxGeometry width="50" height="50" relative="1" as="geometry">
            <mxPoint as="sourcePoint" />
            <mxPoint x="528" as="targetPoint" />
          </mxGeometry>
        </mxCell>
        <mxCell id="LQhzM-H32RQj3qDm_IvA-35" value="" style="endArrow=none;html=1;rounded=0;" parent="1" edge="1">
          <mxGeometry width="50" height="50" relative="1" as="geometry">
            <mxPoint x="528" y="352" as="sourcePoint" />
            <mxPoint x="528" as="targetPoint" />
          </mxGeometry>
        </mxCell>
        <mxCell id="LQhzM-H32RQj3qDm_IvA-36" value="" style="endArrow=none;html=1;rounded=0;" parent="1" edge="1">
          <mxGeometry width="50" height="50" relative="1" as="geometry">
            <mxPoint y="352" as="sourcePoint" />
            <mxPoint x="528" y="352" as="targetPoint" />
            <Array as="points" />
          </mxGeometry>
        </mxCell>
        <mxCell id="LQhzM-H32RQj3qDm_IvA-37" value="10.0.5./24" style="text;html=1;align=center;verticalAlign=middle;resizable=0;points=[];autosize=1;strokeColor=none;fillColor=none;" parent="1" vertex="1">
          <mxGeometry x="450" width="80" height="30" as="geometry" />
        </mxCell>
        <mxCell id="LQhzM-H32RQj3qDm_IvA-38" value="" style="endArrow=none;html=1;rounded=0;" parent="1" target="LQhzM-H32RQj3qDm_IvA-25" edge="1">
          <mxGeometry width="50" height="50" relative="1" as="geometry">
            <mxPoint x="528" y="187" as="sourcePoint" />
            <mxPoint x="450" y="320" as="targetPoint" />
          </mxGeometry>
        </mxCell>
        <mxCell id="LQhzM-H32RQj3qDm_IvA-39" value="" style="sketch=0;aspect=fixed;pointerEvents=1;shadow=0;dashed=0;html=1;strokeColor=none;labelPosition=center;verticalLabelPosition=bottom;verticalAlign=top;align=center;fillColor=#00188D;shape=mxgraph.mscae.enterprise.domain_controller" parent="1" vertex="1">
          <mxGeometry x="442" y="44.33" width="66" height="91.67" as="geometry" />
        </mxCell>
        <mxCell id="LQhzM-H32RQj3qDm_IvA-40" value="&lt;font style=&quot;font-size: 11px;&quot;&gt;DC-1&lt;/font&gt;&lt;div&gt;&lt;font style=&quot;font-size: 11px;&quot;&gt;10.0.5.10&lt;/font&gt;&lt;/div&gt;" style="text;html=1;align=center;verticalAlign=middle;resizable=0;points=[];autosize=1;strokeColor=none;fillColor=none;" parent="1" vertex="1">
          <mxGeometry x="442" y="129" width="66" height="44" as="geometry" />
        </mxCell>
        <mxCell id="LQhzM-H32RQj3qDm_IvA-41" value="" style="sketch=0;pointerEvents=1;shadow=0;dashed=0;html=1;strokeColor=none;fillColor=#505050;labelPosition=center;verticalLabelPosition=bottom;verticalAlign=top;outlineConnect=0;align=center;shape=mxgraph.office.servers.exchange_server;" parent="1" vertex="1">
          <mxGeometry x="330" y="46" width="70" height="90" as="geometry" />
        </mxCell>
        <mxCell id="LQhzM-H32RQj3qDm_IvA-43" value="&lt;font style=&quot;font-size: 11px;&quot;&gt;EX-2019&lt;/font&gt;&lt;div&gt;&lt;span style=&quot;font-size: 11px; background-color: initial;&quot;&gt;10.0.5.11&lt;/span&gt;&lt;/div&gt;" style="text;html=1;align=center;verticalAlign=middle;resizable=0;points=[];autosize=1;strokeColor=none;fillColor=none;" parent="1" vertex="1">
          <mxGeometry x="317" y="129" width="66" height="44" as="geometry" />
        </mxCell>
        <mxCell id="LQhzM-H32RQj3qDm_IvA-45" value="" style="fontColor=#0066CC;verticalAlign=top;verticalLabelPosition=bottom;labelPosition=center;align=center;html=1;outlineConnect=0;fillColor=#CCCCCC;strokeColor=#6881B3;gradientColor=none;gradientDirection=north;strokeWidth=2;shape=mxgraph.networks.pc;" parent="1" vertex="1">
          <mxGeometry x="462" y="216" width="44" height="42" as="geometry" />
        </mxCell>
        <mxCell id="LQhzM-H32RQj3qDm_IvA-46" value="&amp;nbsp;Win10 PC" style="text;html=1;align=center;verticalAlign=middle;resizable=0;points=[];autosize=1;strokeColor=none;fillColor=none;" parent="1" vertex="1">
          <mxGeometry x="450" y="263.46" width="77" height="33" as="geometry" />
        </mxCell>
        <mxCell id="LQhzM-H32RQj3qDm_IvA-48" value="" style="image;sketch=0;aspect=fixed;html=1;points=[];align=center;fontSize=12;image=img/lib/mscae/Azure_AD_Domain_Services.svg;" parent="1" vertex="1">
          <mxGeometry x="-132" y="57" width="50" height="50" as="geometry" />
        </mxCell>
        <mxCell id="LQhzM-H32RQj3qDm_IvA-51" value="" style="endArrow=none;html=1;rounded=0;" parent="1" edge="1">
          <mxGeometry width="50" height="50" relative="1" as="geometry">
            <mxPoint x="-77" y="88" as="sourcePoint" />
            <mxPoint y="88" as="targetPoint" />
            <Array as="points">
              <mxPoint x="-44" y="88" />
            </Array>
          </mxGeometry>
        </mxCell>
        <mxCell id="sO_hkE5k5uEZkrlmcx0e-1" value="Entra ID/Azure Active Directory" style="text;html=1;align=center;verticalAlign=middle;resizable=0;points=[];autosize=1;strokeColor=none;fillColor=none;" vertex="1" parent="1">
          <mxGeometry x="-198" y="103" width="187" height="33" as="geometry" />
        </mxCell>
        <mxCell id="sO_hkE5k5uEZkrlmcx0e-2" value="" style="sketch=0;verticalLabelPosition=bottom;sketch=0;aspect=fixed;html=1;verticalAlign=top;strokeColor=none;fillColor=#000000;align=center;outlineConnect=0;pointerEvents=1;shape=mxgraph.citrix2.authentication_okta;" vertex="1" parent="1">
          <mxGeometry x="198" y="240" width="50" height="50" as="geometry" />
        </mxCell>
        <mxCell id="sO_hkE5k5uEZkrlmcx0e-3" value="" style="endArrow=none;html=1;rounded=0;" edge="1" parent="1" target="sO_hkE5k5uEZkrlmcx0e-2">
          <mxGeometry width="50" height="50" relative="1" as="geometry">
            <mxPoint x="-176" y="264" as="sourcePoint" />
            <mxPoint x="369" y="308" as="targetPoint" />
            <Array as="points">
              <mxPoint x="-176" y="264" />
            </Array>
          </mxGeometry>
        </mxCell>
        <mxCell id="sO_hkE5k5uEZkrlmcx0e-6" value="OKTA AD agent" style="text;html=1;align=center;verticalAlign=middle;resizable=0;points=[];autosize=1;strokeColor=none;fillColor=none;" vertex="1" parent="1">
          <mxGeometry x="168.5" y="287.36" width="110" height="33" as="geometry" />
        </mxCell>
        <mxCell id="sO_hkE5k5uEZkrlmcx0e-8" value="&lt;font size=&quot;3&quot;&gt;&lt;b&gt;OKTA&lt;/b&gt;&lt;/font&gt;" style="ellipse;shape=cloud;whiteSpace=wrap;html=1;fillColor=#1ba1e2;fontColor=#ffffff;strokeColor=#006EAF;" vertex="1" parent="1">
          <mxGeometry x="-374" y="195.36" width="208" height="125" as="geometry" />
        </mxCell>
        <mxCell id="sO_hkE5k5uEZkrlmcx0e-23" value="" style="endArrow=none;html=1;rounded=0;entryX=0.288;entryY=0.149;entryDx=0;entryDy=0;entryPerimeter=0;" edge="1" parent="1" target="sO_hkE5k5uEZkrlmcx0e-8">
          <mxGeometry width="50" height="50" relative="1" as="geometry">
            <mxPoint x="-396" y="132" as="sourcePoint" />
            <mxPoint x="369" y="308" as="targetPoint" />
          </mxGeometry>
        </mxCell>
        <mxCell id="sO_hkE5k5uEZkrlmcx0e-24" value="Office 365 Apps" style="sketch=0;pointerEvents=1;shadow=0;dashed=0;html=1;strokeColor=none;fillColor=#505050;labelPosition=center;verticalLabelPosition=bottom;outlineConnect=0;verticalAlign=top;align=center;shape=mxgraph.office.clouds.office_365;" vertex="1" parent="1">
          <mxGeometry x="-458.59" y="64.17" width="90" height="52" as="geometry" />
        </mxCell>
        <mxCell id="sO_hkE5k5uEZkrlmcx0e-27" value="" style="endArrow=none;html=1;rounded=0;entryX=0.83;entryY=0.107;entryDx=0;entryDy=0;entryPerimeter=0;exitX=0.115;exitY=0.589;exitDx=0;exitDy=0;exitPerimeter=0;" edge="1" parent="1" source="sO_hkE5k5uEZkrlmcx0e-8">
          <mxGeometry width="50" height="50" relative="1" as="geometry">
            <mxPoint x="209" y="358" as="sourcePoint" />
            <mxPoint x="-451.96000000000004" y="266.991" as="targetPoint" />
          </mxGeometry>
        </mxCell>
        <mxCell id="sO_hkE5k5uEZkrlmcx0e-28" value="" style="shape=image;verticalLabelPosition=bottom;labelBackgroundColor=default;verticalAlign=top;aspect=fixed;imageAspect=0;image=data:image/png,iVBORw0KGgoAAAANSUhEUgAAAJQAAABpCAYAAADcMAoTAAAAAXNSR0IArs4c6QAAAARnQU1BAACxjwv8YQUAAAAJcEhZcwAADsMAAA7DAcdvqGQAADVKSURBVHhe7b1ZkyXJdef3O+6x3DX3zMrK2rqqF6ABNNAgZwYkQXFshuLMy5g0GpnpWfoSMj3OBxnpVdKDbDQ2oxeRRg64DEmwKTQbaPReW9eaWbnePSLcjx7c496bWZVVWehukEDnv+105Y0b18PD/R/Hjx8/fkImT/5vPbz/ZxT772F1l0RGGHWIKIhH8CigIgAoM2j8IPG7c/zqQwCZ72Riv4ui4lFJ8drBJ1u0N39Ia/O3sflrIKugKab36E+ojt4n5ZBUKkwsTAFFUDGomPpSoIFINZmmJ5/j1xQ6614VcA6rQ7S8z+6DP6H3+I9x409B+yAeM9z9GVQ7GEYI1ZRK4KeFTY/oXOH1NVTnL3mOX0dI3cNCGIxKEoak7jGHj96ht/1jqskt0H0M7gBhAuJQPOBA/HFCqaLHVFI85hWJKvEcXy8InlRL7OQJBw//kv72n+CKjzG5KUmMR3BTMgX7iUCoE0RCmRJJjNRD7Dm+ZhBVjFakOsIUDzl8/A79J3+NsbhAJo1aSRREp6R6ii/COZHOEU1qj6EklzFp8ZDD+3+GMVRIJJNEu5tokJ9kVJjNnTPp64Tafn4WBMVSkeiYTHuk5QMMUoVhrp7IIShzszoEkSAAIoFYJ+Ucv37QOLGb/n2MYMHsMYBVh/UjMtfDIMFuOvkDRU5l5jm+Jpgj05x+mRukaqZ4jDqsVpjTFdo5znF2BBMJzMkvznGOkxCeY0jNfaUCJnDq3AY6x/NxGqlUagk+SzOdzZ3jHBEzw/s4pqR61pcAYTp3TqZznMBzdMwzbfO578xzCfdrhJMN8SL5umI2y//FePH1MsrDIsBz5RdqxXNM8StPqJOa5Xka5rTj8xAiuZ5R5ll+fxpOlvOrLqc9eL/yhILjmue0G62Pn9RIT0k8/eTxU8t9GZy81q+ynLy3iF8LQs3f3Gk3WuPkk3ZSTiPOi8o9C76MMv6h49eCUOf4h4OvFaHkFO3zDxEnNefz5B8Svl6EOkX+oUF4hs1yipw2RP994deTUAp4Be/Be8SDxDUCmZPpukGk1mzV4BQ58fszS12nUzGj9iwkCIzoc+U4q74smSEcebmoE3nyp6++zPlnRF3kV//8109zjbAjp47RciFwUA2iFiNyfNgLm3gCr2KdNR5/Nk5+cZamq8+ZnTttHYkVqMmkdbyZj934/PK9hnqH+n9RzJE6BkF5CbUwyplp9YUJdbKJA6ZNduL4l3HjxzFPKFXFOUPpckQyxJQYU2BVsQh2bkvFtJsFfHzK62CyZ2L65YkSjjH0NDx9jqhg1GC0DlMDNIRei4kh2NSXO/571XCk3oXkv/C+IwGR2Dpxq9z0K42bV852hS+FUHVVPMx31azx60PTJ2nWKbOLv2j/zFwhcxAUUUFV8aoUVcrefoO9A6W7JKyuCC1bkqrDTKN2ZqX5SCidI8az66FzpIp49olPYb6BBRAvWGeQsZJUFjuN+NAQhh0XxI7R5MS1fDymEu8dRaJGCSVxvA+mePqYCWqRELYbWklR1JdI4vGJw5kQhPkivJBQ4dInK8WsmRRMjB/2Gp6aUCUPEuyS+tdePGoESEENSEVsCkytP3ygZWicsHat6pC4+yY8zeGJnm6u0HAdJ45R2eDDT4Q//4s73LjR5nd/+worbcX6MUZDR4X6KCqCx1OZEhVFNAEVDPU2shrhd0+3gzzj2NOYb2CjhtQnVLsFw5t9zIGSeDvdYGusYBPBmBPlzn3U+NkYg5jQFie5XuNY5542NMYCNRgIeAxelEInNNcSsq2Usu3w5sWa8AyEOj7Oz6oUDUIVEjLEWyoPTh3GOIxUsb0NqEEFnPE4Y/G+BZriZQKmAiyGBKMGrSqsCTaQUwndqhUGH6lpUWdRVawpsUZRZ1AMha0YVE0++qTFH/7hB1y/YvmX//wGq4sGXCCUqCLqYrUELx5vx6g4cCnGGax1WKnmSBUJpRqeXgm0FMzpPXkKrLc0fZPDn+/y4I8ewe2CrJAZoQwkVrBSP4jhi2ddRuI5cz3yFGmO/x1d3PNDGqDqUR9sskqhEkNplKEoW99f5OI/38RfhCpx0Tw4HacSalp/jaSaHj1WfYy3ZGWT6ggmI4/NhXSxRPMhajRYLt7iJaPnUh7uV/SOLFWVUfoJrW4TIwnD/ohUlNXlBRYX2hz1jtjZ3aeoHM3csra6jHrDwcGAydjhqpIsUy5srNDMmvT7I3Z6h/TLJp8/6PLOO5/y7Tc6/O4PrlAVR/QOj7CSYDCkVkkTQcWztLpAZyHl4GCHYjBidbHD4iIkdhI0oBD3LMaOJQ4zhBmc6nybvBjWWVq+w947j9n+fx6R36rIC4vxM8ZYCLaVBm0a6ByuMb8h5CTHQt2OfwZC8Fu0t5Rga07PmfvbKziESiwT4xgknq3fWmHrX21RXnOUafkFCRUJXR+ZWvr1LwSSKifZbdK7NWa4X9Bdy+m+4fArR1TGoz7BuASnC9w7aPEnP77P7dsDqqrJuFTyZos0TRj0DhEt+f7b3+bi1ioff/Rz7t7/nLKsaDVzvv2tb5NkHX76048oJhPQCucq3vzGG1y9tMXt27f57M4jCt+mP26zv9fnN767wdZmwp3bdzk4GCE0KCcV3XbOynKb8aTH669d59LWJh+9/y7j/mP+0fevceNGmzwfIrgwfcfHjRwnOqX+QD19fxGUxFlarsv+O9s8+Y+PyG8qeZFGAoWzrIJVCUa6hnb2GuyreUvz5G4jnSPUtDYxktKrj2lP6u9C/etyw+1IJJRhYh0DW3Lxt1e58N9cpHilioSaNwWexnP9UMer66O1HzaDqip4MIWh2vaM75a4JwU6KRBKSBxVooytMrLKxBhGpWVnZ8Tu/pDWwiqSrHHzzpDeADoLGxz2m7z3fp+/+Ov7vPfhDkljkeX1DZ4cVvzk/Yd8drfP3UdDCgxLGxscjjLe/fkRf/43j/i7Dw4gWeDytassLi6ikrB/5PnZhw94vNvjwqXLbF55hX7h2TnqYZotDsbCB7cO+bsPDvjg0z4TbZK2ujjTYOJblL6N820q7eB8B+87eNfGVQ3UN0DT2IQndcXzEFkYOIpxBuME4wziTfjXGXCCxGPiDGb6nUQJn623WG/DufFY/bd4A/VvfChD1CA+fEbjMWcw3oZr+FgPX2+Ierlh/bmEqhFSuQTx4oMBK4I6pehNGD0aI0ewsJDTuWCQZkWVQi+1bBvDjjUcGXCJkGXCxoWU3/zHV/jmm5dZWWrw7W9f4Hd++Bob66uMRxl7exU2zfnmt67xg9/6JleurjEuxgzGA9Lcc/WVFr/xm5e49spFxlXK54/GjKuU197Y4rd+6xrf+OYF0hwO+0MOegNWVhv8o398jX/yW9e5cr1Fo3PE6kXlwuUFepMhn9y9T69ybFy9QGM550mvz6MnY7b3HA93Ch7vFOw8qXj0uOThwwlPtgvGIwPkCDYS6kWNPlVn0el6IoVN7ac8dnaYsnj101nsfJ4JRaaZcJSgNefP8ap47/Heo1FD1UNffZ6PWi18V2veeU12hlubw5kINUN9CcWYoHx7R30ODo8gFdqbOdk6+Lxg6D23Jo6/G1fc8sJBYimNw6un1VQWOp5u05HbCc1szGLH0c4rclvRzECrigef7/Hgfo+jwwlpIjQyJU08nTYsdKGRO4wpaLQEbyq2n+xx+84jth/v4MoJeaa0mgn9/oi7d7e5f3+bo8MhripZ7Bpef3UT7wbcf3iLzlLO5pUNjoY9Prtzh1v3HvDJ7Xt8+Nnn/PzjO/z849t89PFtPvr4Fp999jkP7+9STlyYbp8Zc6Q6+WluqAoSCYCiRoLdJoKPKZZ8PatGcBKGqtoR6aMb4ZjdRPD0z3g8/xCEf4MiCvbhPNdfhlEvSai5EVwAEQpfUjRKkosJ5oJStYY4UzLGcN+nfFAIdyrDIEnRTMkyJU8qUgY0TZ/FfEQnGZNLn052xEqnxzevt1hfbHDrkx1+/F9u0T+YcOPqOhdXUxZyTztV8qSknY/YWC745hst1tbh5s17/OmPfsonH90mtwWXL2a8em0JdZZ3fvwZf/UX77O3PaBhLSkT1hYy1hYNnfaErcst8lzZ2dnGGkO708RRkrcyvCildyyvLrC5ucrKygpi7LxFdYwoT6Pu0iDHSBX6ORyt/61diQLeBKJ4iVN6qdOa1LlyhEIMEyOUEhIyBWLNyOPj5KEm0rQm0W6aV5jhlF98N7j9n/+nlX978iBP8TfkOAgu+SixXYwYWu0O3Y0WslzhWiUuESYmZ5i0MWmT9SRhzVg6qrTMiLWlhM31RTq5pdvyXL6cs7gACY6tCwt88xurXLncZLGdsbbY5DtvrvP2WxdYWYB23ufKVs7ack4qjvXlBq+/usyli00W25bVhZwb15a4cbXBm6+2ePPVJTbWWjQz5dKFFjeuZFy/mnLt0gpGc27fekAjK3n7O5dYW4B27jBSYLQiywyJVbqdjLW1LmsrHZYWmjRbGXluaDYN1tZ25YkGPIHQaopVQ+JzRg+GDD/pk+xHJ2ddQF1O9K0do6xEl0V0aHpjKIxhlCUUWYKb0mye5qHvlHqJJg5t0SqekqimvEQNaJRCKrpX2rS/2cUtObwN5s7z8NxZ3snfhs8SZw6B0lopUiZYTfDWITmQCBMj9I1l4D2pKC0stjRUowoBsrSB+pyi9Ni0xCZQFTnqc8RWQAUuxVeCTRw2c1RVReUqstxjrTCZGPAZJklAoCgUVcFYUF/QSDxZIhSVMp44EpNgARVP3lrhpz/r8Z9/9BEXL2X88Ic3WF2yJKZgPBnjvUesxXlHmghpYkiMIAjeKeo9WQYGh+KON9RTiDpBPYmzNKouuz/e4cl/ekzjlqFRJsH4DqcG994ze2UGRfDGMkkS2FglXepC/4hyZwc7Lkhc7K9YaE2o+aRx8y6DgKjZsJSJoy9jtn64xsa/3qJ4pTjTLO8pQk0ftJMugzl/VKichqm0akgrpYL3irEWbBzPo5VZPxVhkbYeZQVIgnEvRSCoz0AtSIXgMNPzFTVBC4QNhT4+VvHJ9tHJiInXLEOzxOxEPoQbhLLU4gQqbfNXf/2QDz96wtvfu8yb31yilTtEK4yxYIK/XMUHcuOjZjZh8RkFdQgxn9ZzMU+ohEa1wO6Pt9n5T48iodKpH0qIZJor8umOBydCZROytTVW3vwGbrFDY6nL/Z/8hNEnt2iNyrgyEDSBqoYlpljeVCFMS4yqD0HFUtmKnpmw9TurXPjXWxTXyzMR6tk21GlkqvXtlFhh6DMiGBEsDqMFogVGC6yWGF9ifIVRj2hwPQRCepASZQJUIR2jjEFGIaMeBSojVEYgZezQApgEZS0KEj4bKREqhBKjQUSrGD6SRC90iDyACmMrvB6xsuZ4++1lblxv0Wo4LBMSqRCtwJeIRiGUH8rQWI4SWqJuk7Mgtl1cM6uHtRA1UGuHsDoQ1hiDhFnYCRFhgrJ48QLqKj5+/+ccra2TvvU9xt0uhYTaOsBFh2X4V0O58Vi4Xl2HaEfFcVCm7rWnCX0ank2oaCIFzMbe2RXCt6KxccQgRhBrEWOmSwLhJ4pRCbokxviI1NZBfcuhTBGPkZCB2AjhyTfRYRM7Ea2bfdYF4BAJidNmXu1azYf6149AUAGexHpevb7KW29dZGnZYkyByIx0WotWYWlCfXiitT4nqr+6XZ6F+c6YnhIaN8zQwKnGjp6X2Pm1RGP8pKgINFoUajislLLVpfPa6xTNFiPnKNRTeEfhPJVqLFeovOAwYc2uJlScQXoF9R7vHPiwVEXtYD3lNufxFKHm73v+aFBOs06anRYMRQ+osXhjUYKERYQkDE1TT3BNhFoCMWuZXVGmTsNwPY2VCk92uNH4pCNB80UfWX2eNx4vYeFXsdHgDN8bILUlqR0jOkI1LCt4UbzxYW0vjOXTOw21mnZBILNEoj9DwjAXHqqpNqvvT/3U+vKAkzCM1TM6J9EdcELC97ENHFApzmRMsia+s8A4bzAyhlKEEqUEKgljgFPB+bhGqrXrIZDI6ZwGmyNRtBamPfIiXfwUoTiViE+TaR7T2ceMJick/qWh+0+e9ayqzmhXk/lZ581/rjtz9rn+3TGJisrElH5BM8Vvp+QNfx8nfV1fnWnMF0j9+xkEpk5H8L52Xs45I6ON89R/qnGKH89xyvjgCMTQXlkhWVnhYDSirKrZQx5HG+c9zoffa11GNEXDsROOUw0qdPb52E2cimcSqsYZy3gpTEl1YgQ9SZNfBqaEnrt+fc9P1XP6AMyT5BdvoSnlYocrs0497uGORPL1dz5KeFAePnjIuKrYvLRFc3mJSa8HZfnUtaZ/z5MmknRmNx2/n1Cnl7vN5xKKY7bUVwdhRqqXlV9KBaeYdv0XvHCkY2zfmkAuksh5R6UOp+FYsLM81Zy4+LaL4XjEyHguf+87dJKE4t49kvE4LuVHifZWqPVsYjX9LPXn2YgwWwp/OZxKqGlR9VAW2uArg/C05jqTnCzoVwGx0l6hikQKxIkS58LBxgpkqpdTwiwtSFVVjIoxfTz+jdeoHj7A3rpDNi6ibWviK1XmCRRIFBRSIFC9hDMjXRCn9Sxz+vi+EKcSii/pWTzHMxCmuzgfbJupNoqEUeqZNWi9QBxJpBKJpYoaqETRNIFmi/6nN3GPdzCVjxOAoAl0zhURyo5l1mStrzFd8gkTrSoG3cW4mTPhuYQ6x1eEGMN9zK9k5v1Ox6202YRnJl6gMmDylM1XbtBUgx+VGLHTSFLjQ6AehElNTSqHDwSNBJqRqJbwuT6fk+HIz8E5of6eMCNIcECEqXztn4p2TE2wWrvMiRcoxdNeWaL1xhuUuwdUgxFLGxew7RaFQFUb+ERf19SZGV0GkUA+hq9Mh1iC+8BFos1rqBeNVueE+orxzA6QoKWOaYVj88jozZ73lp8wQZzAODVsvHad5pWrPPj0Fj999z3STofO5gZFI2Figg/KiaGSsJbgMDixeEnwmDnf1glnaoznn7keguZ6Ec4J9RWi7oDjpFJQPxu6opYK5k4dnhIdkL7u3GAzVcycoWMxDBYWaf/Gb5BlKTu3bvLk7h3u3rpJd32NxuYmozxnYBIKm1KZFG9TfJIxsQkjaymmL2YRquitrwibFCqxlCI4iQ7qM4aznBPqK0BNFjg5OZpFvhKXhGqbJcQsxSEverNr73WlcTFINXi/FQ6cYm+8jv3d36N39y57P3uPdDRg/+EDsCmbb71N+/qrsLJKurpOe32ThbULdFbXaW1ewKyuMEpTxmLDLhepvepCoYZCLWEVM+woqmeEL7LOzwn1VWCu3ee1U/137eHR6IOqHdG1DVUPfx6D17CM5bE4EgosI2MZ5xkXvvs2rcVV7ty8jZYFa2vLrK2vYcSwcuUa3//h7/La299jcWuL7sY6C+sbtNbXuPzd73Dj9/8p+atX6TczBgZKDA5DpSas9+lsjW/mq3oxzgn1S8Z0GJx6q+ulkNnwF4hVR1kanFqcJpQ+YaQJh8bSvXaVKz/4HfLeCA4OubZ1kcvXrnLh0hbjoyPu/tmf8/DTT3GiHIwG3H78mJ999jHvffoxHz95ROe/+gFv/qt/gdlcZWgMFQanBq8m+J+iZ75epjnhRD8V54T6e0CtkWoNNZNaQxFVnMGLwYtl4oXSZGh7kcb1G7z+B/+C7toKO++9y+j2Tfr3P+fzjz7k9kcf8slP3+Pm++/x3l//JXc+/ojVlSVe+8ZrbL5ylbVrl0k3VtE8Jc9yEkIkiEay1/6oeTdFrW7PwqlzQv2SMO0Mrf83N+zVnVhrg3g8GMtCKYaku8Di1iVWX32VH/x3/z03/s2/ofjkIz74v/5P7v/4v/Dkw59TPH6MHh5iihGpK0kmI3bv3OaTn73Hgwefk3Ryrn3jVW689W3Gdz/n/T/6z1SPdknLsNW/dnoGMtXLEGd3anJOqF8iVENcVU2t2YL+jFgS3AUOKAwMrTDKU7K1NTZff42N165jlxbgwgbFUY8Pf/QjBrfvkI8LUgfWaXBvu5AXy3hHDpS9Pg9v3+Kzn/+Md//qL/jr/+N/5y//3f/Kw/feQ0cjTJx1Bl9XPVmY2YL1noKz4JxQf0/QqRE+cyjWmqoSYWIMwzyh9cplLr71LYZZwk/v3kTXFsnWVrj/Z3/O/b/9O9zREOMEsHgSHBavZrZWp2C8J3OOZDxG9/ao7j+E7SfYyQS8m9YlEHzmVK316MssEn/NCDX32D0l5sTnrw4iodnr0JD5jtN6jc0I3c11lq9d4u7eDu/fvU37+lVe/f1/xuizm3z2xz/C7x+RxuBFprtkQv3DND9eTxWjHus9ifNklSerFOsDfaZD3XQIDuKO2VFnw0sRalbwycvMd8DzL3/qt3WRp57wRTBPkpNEqslUy5dAplPvIfSQmJCmaBrwNtVY9dqaYpOEq69cY1SMOTg6ZOMbb/C9f/kHaO+Id/7Df+Tw/Y9IR5Np1pb5OCet7aFjx0KmJFWZZlqpfUtBm8Xh7sRCsTte+xfiVEKdbPJZI01Xn+LFg79EMbOwWHiqc1QC4+uNi+FpIqhTT9xTb1FvUB+8yc/pGZirybGncjoFr2sTHXMhp0n8Xah56N06Lj4sgSCCEY4lJ3tZHG+vev1N5upRb7KMob91LHncxOkB9Y7iqMdq1uB7b77JD37v93DbO/x///4/0PvsJnlZkPjYBxIXl02ww56lbbwG26j2LU2HuLjW55kLnYm23PR3MZ7+LDiVUBDb+0TcUfDyOlQ8TiwlORVNvDTxpLFTg/+kXv+pvcPOBE+smy5KCl4tkAMtVFt4baCanKjIcQgzg9ZhcJriaIA08eQ4SWbrVtE5iNpYp1l9ArktzqQ428DbBmpykDRMpucWReVs7TnFU2QUAbGIWFCDc2EJpUKme3kmKEX0iFeTgnsffozf2aUjwpM/+kP+5t/9b+z8+B1s7wh1RQh7ER+E+l+NJJ3ZZfVyTW2zhQcuEueE/eYIZVV4Sq8UlcNPY+JfjKf25dWQZzRicMrVz3fG0HcYuSaTQrAoraSgkRQkUsXdK/Nbj+ogexOSgKpBSalcxniSUZQpXoU8U9r5iMz049al+UrMaTwFJ5aJS5lUDYoqRcSSJkqWjEnMeKafYiZekUDBEMohKDmlbzByORNnAWhYpWPHZDKKGfZm2fO+GCQkVnMpbe3y2Z/e4YN//xi9I9gyDIWqIEiwseJ2cGMs1hoq56mqCo2dO2sWiR9CG8//W8/Oak0V9NYMSmzIuZlccFsIlakYeMdrP1zn7f/hMsmNkiot4j7F09vjTFvRZwcVxeBoMNIFPt9v8OED4cO7E27eH3E0Mti0TZZZrKni1qb64jL9DwQlo3AdHu4lvHtzzHt3C27tVAzKhGYjI880kHKu8rNBKGiWipydI/jkvvLezTG3HjsGk5Q0szRysLY2U+utW2FXjCJ4TSi1w85Rxs/vlfz09phP74/ZPXRYsbTyNG4zr0Dmh7+nWuWMCEOeUUtGzt6dfXY+GOAOwrhXU0JjxxLNAqeesnKRInMx4PVw9Jz/psNWTarp8BZkWh7RZVFrMpRKHAWwcrXNhe8sYJY9aud3AT0bvwChLKW02R02efdmyU8+K7i1LdzfrXiyX2BIWOpmNLMKEweesAwk0ScbdgM7afPgsMXffDzmJ7dKbu0mPDgQ9o4KEutY6iY0UmIZ4SbqOgmKk4zdSZO//WzA335a8PFDw709w/6gQhiz0rU0UuLAF0gVGkMAi9Mmh6MG798Z8s6nIz7ehnv7sLM3IvWw2mnQykHMJAxKZi4K8umWOQPC/Ru1pOTs3j5g58MZocJdzUhV64Fw5zFCszbgaz/R3Dlzj86cxHNrUtVElblrPePvOjq0jITa/PYCdsWjJjxcz8PzbahjCPu0gobKebzvuL0Nj/qL7FXrHHKR7dEKH99zPDkSnKYh6WpsfAl8jOmULWWV8dkj+OmDjAeT8PsDvcjdwyY/u9Njp69UJHNaKaBuKpWEO7ued+/Brf4SB/YK+3KZu0ctPv68x+5hSeXnb0+mRrGSYJIOe33DZw8nPB626NktesllnlRr3H6s7OwqVZWEq0sFUsS9el8AtZ8AggaZW2oJBnAQp4rzGjckhOC4mXE9J5yIqXqG1OdMy67LmYuDmsq0dnEkmdrP8iUZ5ccQNmIaNYhPmIyU0UgofY6TFk5aVKZNvzAMJ8GQCzSqSRWeu1qqytEbV4w0pzRtxjQppIFPW5RqKUpHpTFUNQ5TNSEEA94yHluKskWli1TSpTIdSmkxLCzDieJdnQezntMZfNx8KiZjPBHGRUIlnSgLOFmgX8LheEypCnVupi/sUgiTmbiVMj4oJ2QaHRknM/XQxSzystZOLyW1pqr/fq7Ek2KVX/aez0wo0RCfnDgh9UrDCBkO6yZYP8FSAGOyBuRNC8aGGRdtHC28NPASciqpONLE08odDTvBMkGYIGaMkSGtzNNuCEkC3hoqE0hXSoeKNqoNxCcs2JwFDLmvSHxFSkkqjmYzp9lokdhaw4TJQEVOJS1KaeFME5u1SNIco2CqCikrfDnGmwmal2hShUbWFNUM1Tpb3S8CDdvkpULVTaftz+jR6DKprZx5q+flBQk7qkFjPonTJMZoEYfWqDlfFmcmFPFkq55ESzaWMq6sJ6x1xrTTI1rJIcutI65eNCwstZiYBXbLDR4ML3FveImH4w0OqyUKGqgIeVJyZUW5vjpmOd+nk+zTsXust4ZcWTUsNcBimfgO2+UGN0eXuDW6xKNyi55fRcnYXEq5sebZaPXp2H3ado+1zpitlZSlVkJmwYqApJS0OXDLPJhscHewzoPRCtpeZ2l9icW2oyX7dNhhKTvg8jqsrwiJLUBnr/aYZY55eQQaxg42ippgNNeDmahD1IHWudeng9wXk2k5sdyT3x+TSChRYgpO1LiYX6Jm+/NxZqN8OnhpmGGljQ62sYDJGthM6HbgtUuWN6936S502Btm3N5p8+l2mzv7OU+GCU4NjcyQJ4qhIk8TWu0mTgw2EVbanu9c6/L29S4rTYdTy6Nezvu7S/x0u8ut3QZH46BR8sTTbQmttsXmORhY6ChvXO3wnattLnY9uZkgKBUZ+2WbT/bbfLjT5rPdBg97CZXN6C51aTYsmZnQzQuub1refr3N1VWi9nTxXSf1DPXlUc8Fgv0npKbJ7v0jdj4Z4HuKMRpS/yZBNNGQEsIqGlICf2Gpy9FThXgO+AR8qrgcll9J2Px2l2RJUetP3tpTOLMfShSsCqIpE7rslws8HK9w96jBg15wh621J6wvCpI0eLTn2d5vMizaOPGkdsCFdo9vXXRcX+yRa5+9cc7j8RI3nyQ86QlWPJeWE64tTVhslBxNhI8fO24Nlzn0y6gTOnrEteY+39oydBtKv1Ae9tvc3xdKr2wspbyyULDV7NNNj7DWcVilfLKX8LOdBbaLdUptkODo5GM2l3MSFfqHRxTjIcstz7XVkoudAcuNHk0ZYKin7b844vwJUUNuFnjwwR73/qoPO4J1Er6PF6gXaOvrfZHr1pifIZ6KeCFFUKNUibL+esL131nDrjq8OekXfBovQSiJe7xaHFaL/Px+xfv3hbuHOfsTiwO6TcdCy9JcWGHiW4yrDiptvAiiIxrmiNcveH7j4oDc7fHunRHvP0zYPhDKyiIondyzuVBx+dIKY7vA/UPDUdXESQsw2KrHsuxyfT2jmgy5/+iAJz1Lb2SpvKeTK5e7nreu5ryx5ei0lcfjjL+9q3zWX+dINnGkGF+R+QGZThgdHlIMR2hZkJmS9QXPa1vw/Vc8F1pHJIxPGDm/GCQSSjTDlClmmJJWGQbzdLlxCv9lYlr7Z5EqroaEWV0Y2itxuKTAdwqqZBy9VM/HSxFKVFCzwP2jFn/8k11+et9yyBoTmjhPyE0pnsWVDdpL6xjTxpOhAkJBzoBXVkt+89KAonef//fdJ/x8u4XXBRJJEQFDQS59NjaWyJcuMqJNRYaXFFSwFHRkn6aM2H68x/bOgEmVhWUfINGCtox4bUP5p29lvHK5yf1hg3fuCp+PNxjIRiCUViSugGLMwfYOk+EAqgpDiWXEpeUx/+0/afPNjT4Zw2CDvMBLfBaEdg1vlzBqj6UwOln2F7vSKXgWmZhdTOJsPujMkNrImRJv6hWP5+PsVmY0qjyG/kQ5GBv6vsmIDqW0caZFQZeJLjKqGlQuRUUQEzbqGK2wFFgqKoSDsbI/SZnYRcqky4QmE1qM6NDzi+wMMoaTsO5VO+qc2Lh+mNArDXuTBod+iaEsMLEtyqRNmS8xzNZ4MEzZ7juKmGDLq4TBJGa7Q8F5Q6UZheQUpkGRtBibDn2zzO64ydHY4ny9qBwb4AtCARWPNxWVLaiSyZwUX73YU2R6zoQyGVMkI8pkjLPFmcnEWQkVFkmDeCEEtEuKk4yKFC8JKikqeVwgDka3lQlWBmR2QC5HdM0By9kIY4SJtGgubbB+8RLLGxu0lhYxWRbyO2oCaujkFd3kkFz3se4I647I6NPJxyy0HI0sQ2wbbxuQNWgsLrG8eZmlS69gFi8wSbo4GjQTYblR0jI9Ej0k1T6pTsCVFJMi5klKcCR4k6O2iSatqBW/qP/paYSZVEhq5p8j+vcgXhzezMk0d9bZcKZZXshZHQhVkYcZ3HbFziCllDYqyXQHBzhaDWF1KaXdUDIzJrdjusmQS90xV9dTbJrR1w7SvcTSxhWWVlfpLnSwRqkmYyiHLDaV1y6lrLSGiJ+gVUWiY9Y6FZdXKlpmzOGhoz/KSBptNi5ucPnaVS5e3mJxdYWFhSYXllKWWoZm4rCmYuQ8hVMyY8mMYTIcMegNKMYTXOVRH6bNGKVlJ3xrC7a6ExIzCYshZ5w6f51xJg1VQ4iBXEjMZR3jb6JFJyKIKJmF9eU2lzfabK2mbC4bLm002dpcJu906WmbvlnBtlbJW126i4usbwZCrF9YI0uF3DpWuwlXN7tc31rg2oUmr1xoc3W9w6W1BRaaGQklufWsrS1y7forbG5dpNXpkLfadFYvUuSbPCkXGJkuncVFrlxc4cpGmwuLKUtNg3ETXDHCVxVoeN1IuE/FiIepd1m/FPvp64AzEyoYk/XKWlwfMoKLWUNqGDEYBJxHqwlGxySUqPccTIT7fcuOW2KQbDAxC1QkVBi8TWktLrG8vkbeyEFgOPYMx4AI7WZCt5liHAwGMBgZytKR57C83CVv5iGzm/cglso06MkSj90a98ZdHo9zRiXkRmgkgvgSK0pqDdaE9NQhglGjczG8HDK8Oyd4rIPz7xzPw5kJFZS9hfjGS4uLPw6dIRoKS5IUbIMnRwV3HvW49XDIzQcjPro34oN7FZ/upOwWCxTpMpq1cSbsoS8FvLXYvIlpdhhrk0eHlse9Fr1ygdIuU5glDiYt7j1J+PyJ5bBIsK0mzcUOpDZs1zYhzU0phgFNnpQdbu7nvH9f+eDzEZ/d73Pn4RG7RwUma9NeXKHV7WKzDKwJqWvEY5Ig8ZVMx6e85zgVZyKUqkKMwkSDp3uhqeQGbHwVVp06Os9bmHyBvmty5FYYmEv0kyv07GX2/UX2ihUGrkspDZwxOAuVUSqBUj0lgrMtfL6OdF9n5doPufKtP+Dat/9rXvnu77P5xg9pbX6fMr9Oma5QJRnemhANakJZznicKKVYBtpkt1hge7zKfnmBI7dGX5cZygJV2iVpLZK0OkiWgjWIhDeFdtpCo6mICZrqy5rl/brjTISiJhVgcCy0lEvrLZZbllQV4zVk7VcN0YY2oZKMkpyCFgVtSmkxIWNQwbAqKHyBU4fWqWgVUE8xGZGmlsvXXuG1b3yPi5fepLN4iaS5jM07LG1sceXV77B1/RusXljD+SG93h6+KoNyUcX4MibfDwnwK6cUmlHSpjILVCYQupQMZxNMmmKsDRGSWtDN+rx60bDS9lipQjzVuYI6E55LqGNtKBr2skpJMynZWsnYWEjJjcNomFoG0tUu1zgxJPyrongpcQwpqwOEPokUYbHZg3VQDAb095+wtNDgtRuXWV9dDhEDMS95SNXuSDLL6toiVy8tsdiqGBw8YtzvQelIvCfTigZj2jKgKX2s74EfhXfGaUg64SWJCbfAWBOCAL3H+jFb3RGvrhV000F8M0N4Ufk5qV6M5xKKudAYokNOpCI1JasLGWsLDRom7IDx4sF4bBJexCwSX2kqoTOCN0fAVyRVnwV6LEiPvDqk7B1yuL3LvZt3OHyyw1InZ321QyMPyzFMk7ALBkMilm6zxeZKh82lBpPeAQ/v3mPv8Q5Fr4d1fbpJn9XWgMX0kJQBQjWNa5qPaAQQiXZgJNTmonKhO6FpJtjpRCTW/3zoey5OJdSUSNO2q8clh6GimUInFxqJA1PhpCJJlWZDSMyxzU3TjQKGlISEhq/o+CEd3yMp9jnceci923fZe7xDKkK3lZElwX7xVHh1oKDegk8xmpKJJVfPQmrJRejvH7H94DEHT57gJke0swmdfETDDjFSTO8nzOLCjE0IL/4xElavBEdqSlrphFYyIpMyzFinW7HOyfQinEooTg55EQKIOhJT0W4pjWaF2AKloJEXLLYqGkmFxU+bPniqBCRHTBdkidJ1KHwHbxaweZvF1VUubF3k4qUt2q0WqMe5QKaQ6J0Y8xneLVNW4SXW7XaTzQsXWFpdIW+2kDRH0zZ932R32GDgllCzBORhG1U9LD8V0hqWZdLU0ciUxLjpe2nqljj5i3M8jecS6jjiu1gURDzCmHarpNkYkZgBqQxYzAasNgc07TgSKlDJE+KiVVKSxio0tujrJod+k0m2xdLmdS5dv8Yrb7zKxSuXsVlGr99nPBoFoz06GEMiCWVUjtjZ26E/GpA2ci5c3uLqq9e58uorLG9uUTXW2avWeVxcYt9fQ7PLWNsNs9Sppp3TUpQYxiQyoNNydDs5ia33Bs502zleDDNvFTxL5tuxfk4Fj9ExS40+W91D1tMd1swOr3QGbDUHdGVIQhme8KinPB6TCI12E5u3KMkZ+5RKMkhSJLGQpGiSUTrH7u4OOzuPGA56VJWb5pqcTEZsb3/O9vZtJsUAsYYkT8laOVk7x+Qp3mSUNCikTWnapM0F8mYLYyS+TSouWFOR6Igmh3TMDkvJDluLBcstwUp9w+dD3MvA/i//48q/PUmikxJQ7xeLnwxY48hNSVMKLrbhW1sNLi5mDApLr8gpyXASd+uiZM2UVjsnyUzYdCnx5YUSy4/aL5ECqglHh30Gw4JJ6RmOSwaDAbtPHrH98BbVZJdOw2MTw8TEDQ4i0/W2UK4Pr0zD44qCYjJCtYp2U0gw2KDPemvAheYhl7tD3ti0bK0IrbQiFY+ZM8qnbXCOUyF7P3p2PNSzEVqzXstzJqXUBuMibB9vJZ6SBu8+bPHezgJPymVG0glbvtXT6nZYXF6m2WyEN3lCDCQL5YoqiRZ0zICmVPSOJgxHBsm7mLQJIoz7hxTjHdaXElYXhEodB7rAIC7jUBMgbiMXBVs6+vsHHBwcUlYVImDVkeqA1XzIm5uOy50hXTOgkxYY6WNlRCaORD3GB3sw2IGhBc6HwGfjJQkF1NPtSASPAY2J9cRTSofb/Q3+9l6Tm71lerIStJR62t0OS8vLNJqBHEodkhqMJANYLVlIS1baGVZyME1IW6iE9+6V4wHVZI9mVmIYctjvc+AyBrTwYqMSDQu99YCbVCWDgwP29w8pSo+IYLWgwSHXlwu+e3HCVr5Pkz6WAkeJmIpMIFGPnBPqzHgJozxA68ZUj1GH1ZKEEZYhRkcIQxabjuWmJzcVoj6GldYvI6zD/euxI5ApEEEQLGm2QLu7wdrGZS5sXmJjfYP1tTXWVte4uHWZq9deZ3n9Cnl7A026IX7quP6cy2ugGKnIM8WaetYGgieViqWWsJAW5Noj0T7WTLAmvLM4kOYXf+X81xEvRaj5ZzIQYL6AsP0GHIkUdBtKbj1WffQ0K5kRUhu8OnVptQlVLy6nSUajtUzaXMEkrZA1xTl8VeErh3NQaQq2S9Jaw2SLiOTEGIdpXWbkVRJT0cqVNPHB4y7B6M6Mp5l4MqnIjCOxwXEbNhPE16PGR6gu9xzPx0sRak6nQN28c20cOlGxUtJIKnIbNl4meBI8mS3JzARLGUNhar0UF/ljtELeaGFtEyULO4U10CVoHBC1GDKypEuadklMhq3fkF4HA0Y3R+KVBgXdtKJtPcm0jED4hq3CElD0OxEbJTg6Z9C62HNSPRcvRShONDJ1Q08RyGFxJDIhoSDRgpSKTEqaZkBTjkgZxa1J4W3qceFjulQjhGFQvaAuZNIyXjBesaqkXkg1IZWMzGQkYgMBJCyjhLeOC0Yh1YqWDlm0Q7q2pKEliXeIK2nn0EwrElOGLeJxiccihOQ+s+wk83O9c1Kdjpcm1IsQhq6K3DiaeBq+Indjmn7AgvTp2iNy6WEZYygwOst3oOoxJpAsmmmhI+uXXFO/97d+6XXQbEYcxlShDHwkeYhrT5nQos+iOaJrejTokfohqR/RzUpa2YRESkRD8FytiGqNGUqaxzmZnocvn1B4Eq3oJMp6U1hJCpbkiPWsz0beY9kc0NQjUgYYnSBazrZCa8gHdZoNbBBMXMgNPniHsY4kKTEyiTtaoj4Rj5GCTIa0pceSPWKzM2S90WMlPWSjNWa1OaGdDEhkHNIO1YvQ9bLMOXdeGl8NoRiz0hzx2vqIb1/Y5zsX93lrq8+1hUOW7SFN6ZHoCEMViBFzY4o6EirCO5Jm4bbHchgR9t178SAlqS1pmIKckHMybEa1KGC0JJMR7WTIUnrEjeURb20NeWvzgO9e7HNjZcBS0ifVcZiNTmeIzyLTUwfO8Qz8An6os0BQyZi4BhOfgBXEGCpn6LkO96stHriLHMkaY1lEybHe02DEarfJ2toWeb6MkEbrKrgB0LCuF+KYHIn0GRzd4+jgAf3hiJ7vMpIFKkmwTGjrPhfMY27kn3Mh2SYjbJlyKoAjsyNSxsHPpLHehHH7ZKNIHM7P8Xx86RoqwCM6pmGO6CYHdM0eLd2jxSFtM6RtxjRMgZEqbHqMXu2MCS0GNBgT0q7q1KqpnYohWazDSwk6IKFHU4bhN+pC7k5NAEtCSBfUMBNyRjS0T9sc0jX7tGWfzPcxvghpdqY6sPY/zWcliXLOqBfiKyJUbdrGF3OpBrcBFQ0paNmChhRYKcE4fPRf5fRpsU+uwWNtcKEP41QyRH2GfEciBZY+DXqRhJMZCdUgXrCUNGxJLiF/lGiJ+CBGY9n1QBczA4eDNameJfPfneMkviJCBdQGbi1WPImpSE1BYgqMCRpKxWHMhNz0aXFArkfBxtIwc4sD0XTqbnCkFOS+T9P1aDGiyYSMkkQrEnUk6si0CPaVlKRaYedmlHWZ9VwuUGS6DlBXfibHcPLzOWp8pYTiZNMLiPEYUyIyRrQKSbbitvWG9GiyR+Z3Sf0RVsfx+7q7QyGJVjT8iJY7ouUOaOmQnIKMMogWkUyOXByJloQ3wkViziuY+O/xiWUMwDrHSyO8I+K58ouj7pPwxNeU8CSx0xPvsV6wWpEwomn7tNilWX5O090n0SOUcm6vvyI4Mp3QrA5plI9puEckHGCkIMGRqSdXR0MqmtaTUKGuwrmY9zO6vIO2Cz7xkJkuZiieuVlj6p36+5pkz/Kjf10x3x4hTPoFhPri0Ol27iCinpyKDiVNX5C7gtwNyTmiY/u0ZZe8uE06vol1e6jMEyoExWU6JK/2SMf3ScsHWN3HyIBMwqatlhnTtmMaMsa4EVVVUDmlcopzwU0xI0WQOl1RkJpIx4+d/M2X1Ua/mpg5WWYSMl390iAoVj05Bct2xLrsseHvc0E/Z0MesWAOyHVA6g5Iyj2s62O0nL48IsweK6wfI9URUu6TuEMaesiCHLBin7CaPmI9ecBq8oBF2abpD7A6Cm8in8/1Ta1CnyWzGj9fznGSVL9UQqFgvKOhY5aTHpfzbW7kd3ktu8317CHL5oiUAqsl1o8wfozRMK2fVbkCHVOVR/hqFBKMaZ9V2Wc9uc9GeovN9DM27R1WzUM67NOQCcaEOKhpJhmdWWXn+DIg8MvXUIIRj2VCziHLyS5b+TaX8h3W7R4thlitIqEmJDqeug8gzBTDovIE0RFCiRVHKiUNM6Br9lg2j1g1j1iWbboc0pQJiXjEmPhasaBZROSX/jz9OkOxOJr8/wvTh52kjcYiAAAAAElFTkSuQmCC;" vertex="1" parent="1">
          <mxGeometry x="-539" y="230.52" width="88" height="62.44" as="geometry" />
        </mxCell>
        <mxCell id="sO_hkE5k5uEZkrlmcx0e-29" value="" style="shape=image;verticalLabelPosition=bottom;labelBackgroundColor=default;verticalAlign=top;aspect=fixed;imageAspect=0;image=data:image/png,iVBORw0KGgoAAAANSUhEUgAAAH8AAABgCAYAAAA0Pa1dAAAAAXNSR0IArs4c6QAAAARnQU1BAACxjwv8YQUAAAAJcEhZcwAADsMAAA7DAcdvqGQAAC2LSURBVHhe7b15vF1Xdef5XXuf4Q5v1tPTPFuS5wkw2AQwYJsZk6GYQqDTTaW6XAzpDiRNquhAVX/6U5UEOk1BDYQiqaToKpLqhLEhZrSxsZltjC3LkmxJlp6kp+HN7957ztl79R/73Pvue3qSJXkSoJ8+R+/ec8+wz/7tvfbaa629jqiq8jRAVREBBZwKmVPGneNos2BiznFwKufg1BwnGi3yIgeENEkxwOrhAVb0CStSy3A9YXlkqFlDCoiCQPhPFt/1As4G8nSR772iwGThGWs6Hhqb4Vu7DvLQRIuDE8KcMxRpDY0inCsAEBEQQVFoTLKqLmxeVuf6kT5edNEAq+opyxMhFbAYEFmSf0XL/Uv9Oo/FD97+vvisxd+XhgfM4p3nNZ48+QqIQxXQQIhDmXXK4dmCv//ZEb60+wgHmp4i6kHV4GOP9xbvTVm1DhEFBBEhNglZoYgxOOdI3TR9+Ql+Zf0Ar752K9eOVFkeGVIJ97eliFEBL+BxAFgsJlyW8JjSYTIDWs7T8krLQ8t7nIZGIwixMVQMpEaoGCEy802gLXQEEA+IolIgxJ1jfh7w5MjXcjNNwONdhSnnmVT4r9/bx5cfHuegVmlG0umLbYJUysYS6g4AU35vQ/AlaR7Uo95RiS3XDcJtL9nMFf0VahIagS3JdwI5Dgek2HJ/gailiTCTKYhnb6bc+/BBHjw0wbiLOTg9Q8s50CCBVvUsYziCjf2W67atZMtwQp8VImuoiWApsAjW29ACJEdJz1BKnB94UuQH7hVDC6eeWZ9yx/E5PvGdnTx8PAKfIFZomXmRes7kAyJgrcFlLXqLOX77+Zt405UjrDCGWhA65X08viPGFYdj2llOOPjcj4/wzT0TPDI1RVTpo9AKmbM0syaVSopXj6K4whEJxEYosgaD8RQv2dzHay/bwLUjffQaTyIthBjTfgb5Jer5CjQpMCizGvGZH+zj0zuOcYQq3keo2jAqUGDK26iAP2lsDN/NopJISXpQHgXwiID3Hq9CIsoLVwvv/5XNXNYTE3klFosXITeKBZoKezPHp+58iDsfneK4DpHbBGdbGAUhAgxePCra0RfEKUYFFYuKwUuOUcegCtcsS/jNq1fz0rU1qjgwDmctVm0ot/x89P+zJN/jMYFQBRVlWjOmNeZTdzzK3z3aZFz6AI9qhhPFo4hop3eHq5wZ+WFABfWKGEE0kO+kEZpFptSjCtfXp/m9l1zEVSuWEXlBRHFWmMo9n31wjE/e/ziHMgUxIBGeCCj1A/GogFGLaNA5KBucUU9UNl/tlFHxztOrGa/a2Mc/vWETG3oNKo6Khuu2G+r5rgCeJfnhkRQoNHwec/DRu/bxhb1zTBhP7C2xtyiKShgWFI9oGPe1rJLuqgkUn4zOMFA2gnalqjpQj0EQhMRlXDEY8d4XX8T1I1WsdzzSaPHxe8b49t455hSatiRUwhjUVtho/9XykxFUfNjKgUO0a1ahoD40/liFTX2Wd924ltesSqn5Nvk6P5adxw3grMgvFVtEg7Y8I/B/f2+Uz/5skrGoCtIg8WDVlsQH8sMI3B7oz5z8xUdYkVD73oP4zpy/EEil4Mo+y//y8u1Y7/j333qYHxyBVtyHaEZutDN8SPs5CJfrFtJiwlTTm9AAOlCDEIgPNSaoxhiU1WaS97x4A7+xbTk1fDnERQsv/BTjqZArZ0U+hLuqKOMIX9x1jD+76xCHtEYGWHIsiiCliD0F+YsUu3bPPrkRLDzOIiXpvlOvqoohA/VYidk80g95zr5jLZokqDEIjgLFlzO9DvGLPocd4fnavb8NU5Yd1VJKWDwxHktCwSo7w7teuIpbt40wiEc0PP/ThWeBfAWf4QzcOen5/c8/wJGsilNQLB4L7WeWUNNPB/lG549UBY/FeFCXQ5yCGGzeQhC8sRRiKAS8mZfGbf2iWxeBMLTMkx/G/e5jpH1vNSgWo4KRoNeMxE0+8OK1vHbjIDUNzw6hHrrbQfctuz93GmTXPrqOaUuqtlR9+slf9Kt6Zcwrv//1R/jqwTlEKoiWJTKmLKJ2TlSRJR7nqYCG+xIaXnufEqSO0WDoCXsNflERur8ubgBB6+ekh1/wJFp+K4cfRUgQ1sez/MnrLuGquqFi49DogioBKAUSjEo5TLVyCm3fC2rGUEsslViIJTTQ0uiJUYhcKJKPw5OajvXk3JrBWZPfAr68b5I//NoeJiKLaNSZry8NKRvAU40u8p+2BnbmaJNjo4Iblil/8upLGTKG3MBhp+yamGXPeIsd+49zYGKa8ZbDaYy2hxNA1FKxwrIqbF09yMWrq2ztr7K1p0pfacgSyXEiCAZbKrznirMi3wOHnOfdX3qUu455sE2MN0in53VjnpCu5/uFhfVhyyJPnzR59w1ruWJFP/fumeHbu0cZKzJm8ozcG3ISCiIoNaTQ9z14g1XF4kjEU4ly+hNlQ7XCKy7byHWrEtbXYhIgKoWsYM6x358p+aXIylX4woFx3v/VfYzbXkRyEt8WPQtP4Tzojc8kxAtGDXmUgW/SH1dZZuHEbIuWjSiMIj7Hi1BIQmGiINY1DJGKx2sCGGKfEVOUY7shdgUDsWU4aXHz9mFu2jrClp4KPdYREZ1zLZ+WfI9SkBOTgDpmsbzrm4/zjf0Nmj6QHOHL2bss6uHnWqSfU2joit7kGJSCOMwFSgXRSyBagcK050TaUTwVcBhQweKw6kqpYMLYLoJVpcfPMdyXc+vla3nD5hE2VGIiBSjCDKujcT8xnoB8R0ZGQoXMFeyZg9/8u0cYc1E51w1HBZgO+YsveIZl+QVAEOHt5z1bM+9pqAj2CTVBuTRNlpkW1wzWecfzN/C8ZRV6rGLwIPaMa/y0w4UgWIJ9PlPhp0enmW7lpy3kPOandr88OHkIPBucqrHM7w+2CtUqR/N+vjUGH/7abv5u7yRHfeDoTJhp4wnJj7DhoUzEDw/N4m18ZhqmhvPll64BPDmIBP9C99YNAzgRvIEC4ZHM85E7dvHfHzjEkUxxXdw8UUM4LfloKWoQCuDh0ZnSh9cNWVrMCO0WcAFPEbTUwyLNiX2GJceJYSLq5T/+4DB/df9hxgpHrsGN7Z+A/tOTT2gAqsJ4Sxmf1c68VEuprhLm8d0dPDSHtnPj9AX4RYZq8Cc8ZVsZ3+ABZyyFibGakBUw6lM++cBx/vODBzhRKA4QSqvQKXB68iUosV5gei5nttVafMQFPNNYbI7sDBWG3KR86rv7uf2xSZrOBP/CaXDaXz2QA7nCRKtJbkOrOxO0vX9LlPUCngbYyOKA6bSfj931GDvGHDOteQPwUjgt+W14wDtHUYr7Czg/ISiVWDiUR3zy7gNMmBDKOi/8/YJh4LTkGyDxkCp4BecKVNtxdRdwvkEAspxmmvLN40f5/L5Jprwv/artKKz53nta8rt1BaEdxHAB5ysUITMRkYdZa/j0fQ+xJ3c4DA4NMQ1dx5+e/BIi0Ntbx7a9Cc86/KLtybfKJ3+FZx9eFDQCPGIqHJpL+cKDY4znDlUl0uAZbOOMyAeoVWIqabJ49zODcl75dCmPiuDE4svoXdSAmhCo0bnn+T9tNWoQtSF+AEPS6uX2Bw5wLPMgghRd1vgzI18xoiyvCEN1E+zHzyDCjMEgGpUWw8VHPHm0Az28KF4cnhjUEheGShGslE7OF6l3emgZ+KEYcgsTeS/f2zvHrDNoJAsYPz35oiFSBaEGXDzcE0KZnwYClkLbsBHLBKkcRaWJynyEzlMF64XElXqNcYiZJpIpjMxgaFEpChJXRiv9XCDQqkAhhs/9ZAdTmZtfLLPgqFMixLKFT57rV9Uga6D+men9qko1svyTF2zk9164gW31iFqeEasPawGkbeAI4dLz389uM6JEKIIlskK/n+CG5Z4P/Mo6PnXrVv7d67bwim2DoGE519OPYCN9slCBGZ/zWGEZbRW0/AKpf3rytbQli0IkcOWqQYZqVaKoLFhpQWpfcKlRURfJ6e5jljp+HoIqxOr51S2DvHn7SobEQSeevl1B5da+2BIX7P4pjOrzB4UnEXKr5AaqqrxgRS8fvPFSbt0+xMUjFbaNJNQTh7XlmrDOme3PwfMufn5YOvVTL12O+R/n1zcsfVb73Cd2rymKryZM+yo7jjZwnaUnAaclXzBAHAIRcsf6quGy5b2kUq6qFVAxIdZdTBmubREsBkGNp4gcznpEwjHeSFjgqJBHirOKL89vb+G+FqtC4jNqKD1AWokoIovTFCkScJZcDc4bjLMYZxBX2qO74AVyK2RGyXF4XFiT5yEuDEkhRIWQZJ4B73nviy9hXTXl7r1N/tcv7OS2z+/m63umCeEV4DF4tYiLCcEXGYlvdCpTS9erR4IeYXJUwmJWNCwK8aaFN77UMzRcVcuVTeXI6kQoykUmsS+ItMAZT2E8TiyxO70OJAiVTPB5zI/2TzHrFja305Ifiq84FG8jmoXS21vB50X5AF32WwkVY3yKahLCpPEkhSUpLEYdsToSXw4lZVy8iMdQIJIjkmFwWIWKc1S8x4YQGBANDUNigtuiBZIjFHhRCgmWLHAIvhPcGcrmMNoK3rACktxiXZBKsVdQxakBb9nWYxhJLTO556/u2c094/DAlDLetHhNcFhEIaaFlQZgcGLJrcOJx7VD2EvJICpYr8SqJL4oPXIQuSrWh+AMKaN/femqFcD6COuTsAAGKIziJdSHk5jIF6ie3nwLYUWLGGHXkXGm8oXD9WkjeVBFRWipcv94gz//3qN8Y39GZmMKC94IEJVTjPbjVonyCdbVM9b11KhiaRYtjuQt9s8KTdNPIQVZMc3yRNncW6MmRRBnIkzMOnZMCnFSI3Ithk2Tv33b1Ywklnd8cRf3HnPM5RkkFWL1rE5brK0LEcJUbjnREI41PS6pkLuwtDuSjOG0xYb+XgY8RB4OuILHZxs085iiUqeujhVJzK+tKfit67ey74Tnj7/xAI/HKaMzOU1JsXnOKgubehLqNmPKFTzWijnaaOHFkJkqQsKKqjBkGxzPlaIxx+rBOlXrOTFVcNhBg5i0MKyKMlb0p8RRIHg6Fw7O5kw5i20ZKuRUKhmrh2pUfAvNPUdnDQecoB5yevAmP40DRcBHRDQYkVn+w29cxbX9ablScUny21/DuDPnlO88PsEn7t7FT7OUSU1I1CNSUEQeoynWhyBCQeml4OXrK7zpqpWsHawRGyhy5fhck7tGJ/mLH48xXVS5eiThLZf3s3Goj5F6EEAtB2MTGX/74Ci375ljRlPW2in+5s2XszyJeMeXd3HvUceshxWJ4+Yt/bz24uVsGUiJjXCipewem+G/fX8/90xZ1MQkVtjYU/Ce546wbeUA9SgYOo43PQ8cGeeTPzzIo8ccN22t8fbnbmVbBVaknqaLeKzpOeI9/+c/7GR0bpqXr+/nLRdvYN1gjTiF8aZn/8Qc//1H+7jzYIvxOKUmhn/8/BW8dG0fD42eoOI9V2xaST2Bf3hsko/duQMwvPGilbxy63LWD1eIolDXR+eUv/zxYf7+4aMM4nnFxl5uuXoVKwdr9FlwubJ7bJa/+sGj3HtMaNCHN9kpyVeEQiJSnWFAcj7x+kv5lWXVTgqJJcS+LwU9zHjlK6MN/o87DvLDxgBTWu2oGYLBeBN6fRj8EYVrhyy/84L1rO9NeOToDLfvnuChow2qccSVqwdJTIvYO7YO9XPNyn5aWc5PDjf4yeEmh6cztg+l/O4LN3DdkMd6R0EcRCJt/7inT4S3XL6c33vuKrb1ROw93uT7+ybQZs5Nq3t4383b2NYDFkd/McX7XraR56+qMz4+xzcfHef7j0+RZTnXrRpisNZH5GP6KzVcq0XVCkjEnkbG8azF2HRGmitv3L6c992whW0DKfumG3xzdIKJZs7VgzU+8PKLecXafqrOE+PYWHVcVRfetG0Fr962iv68YGayxYOHZ4mxvPPqzdx2/TquGK5ybLLF/Udmuf9wg8NzGaPHZ0mN45bLBnnXizZyeX/KkeNz3LnnOIeaLa5a2cMf3HIpF/XkoNMdH/9SCKqjQ4koSGi2/AIT/Uk9v+0GaBWGe481+N+/vo89cxHNuIJIi6QILc1IaFkGW+qQglXH//bC5bxl2wB3P3aUP/76IxzNK0Q41g1WGVzez11HJjFFyurUc9lQDw8dOMGYm8NoxPJKwodes5VrhxI+//BR/s3dx+mrKn/7jy5hJLW844uP8P2jBdtSx7++9VLWVC1/fd9+PnP/YZoac0nq+Oe3XMGGZRX+28PjfPTeR7lqOOXfve4K8iLnvf/1XnZOKrHNGe7p44oNq/javlnGG0KvmeEik/Nv33YtyysRf/D1h7hn3wReetlYs3z4lVtY22P4h13H+dhdDzLmLZt6Ev7xDRfz+o3LeHQm53/4uweZ9IYP3riSN28eoenhC7uP8rkfHWN0bpzjkrKlN+UTt15Cr7V8aec4n7r3QQ7kDusr9FZ6mdWCLf2GD928jQ2p8MUdR/lP9zzKCVHW98EHbnke1/UnfHH/DH/0nT3MFpWgW3SljemGL+0YdeP42M3ruXltnbg8dImeL7TUsGu2xUe/9jAHpzx51iTRJkYd2l5rr7YT4iWlsidATyJEkjFQsWweHqSv1sO09PKz2QHuPOCZcYZG0eLgTMGd+yZpmITlvRFr+4S+RNk/dgIVQ39fvTMEKVrm/FHEO265aITVqeGx6Rbf3jPGbNyPxnUem1Fu3/k4dQvPX1OjVoH6QA0jUMOwdqCHwTQl6x1mV1HnczsyjrocSSLG0x7yngoNA+POs/NozgGWcYKE7av7GKomHGwI/++OIxyOllFEK3gk6+P/uW8vM15ZXjFsG07QwuHLujiceT5296PcOel5VC1Fy/HSjf30GWF0LudT9+xmj/bTrI2QVfo5ZhIyG3H92gE2V2MONnO+smM/jUoFqSccyy1/e/dPqBjDZctr5drF8manQkcZM+ii+IpF5Dtc3mQ693zyh3vYMWeYsz0ksSV2c1hflHfq3trXD1f97q4jHG0Kl60e4IOvu4zbXrSGV2zrYXU8jfUFkSuoqFDJW7xqc8of3nIRH3/LdXz8Lc/lI2+6hldtW0dqBCsEOdQxSWlo4cD25X3UBQYj+PXLN/Hu56zmvc9Zwf98/Xqes74P9T4sZXCGh0eP8+hMRsVYPvj6q/n9113JK9f2sL0+TcIU3ig5RVho2R9TMYbx3NHwCmqxhWfDQIWBWDg26ziSJeRSIbNKS2CmJRzKczzKuprHaoFT8KocmWxwohmTmioRdWJN2TpYITbC/YcbTEgKJgZXUJgmTnJSNaysJdSign4rvOGaDdx23Rp+99o1/JNr1vDqi9dggFoiVOJ5w9apoaHDSnDLn9LCp6pMZRlf3zvBV3ZO0kxTvAnTsnYvnG857Q/zf73Adw57/uLBSR6ehhTl1Rtr/Mub1vDx37iEV2yuUfcFPYXjbc/byD9/2RZessKgMy3GjzfIpxtYV2A8YYGDBm9U6PRldg4ReuuQRJYVtZSXbh7gls11btrSx0u3jbB15XIOZMqBzOM1ZrLo4T/csZP7JudwTnnxygofvnE9//6Nz+Ntz+9nBU2MeuJmg+2pp1dhtOmY9RkRTSrq6E0jLJ7pVoNGq0XkwZBTcTmSOVq5w6CM9NeIS/GrKGMzszQ1I6aBwWCTCvWqoZE7RpstckkRl4BPcRIh6kkc1Cp1IoUVlZibN47w2k3L+bUtq7h161qu3LSax4uCfS2H90/U7cH4CFFwpsDbhfP8ttYPhFDgo5Ly6R/toZWMUGiLSGZDKhSSRRJGO72xe4YwIXX++r5xvn7fKC/YuJzrtwxx3eqEy+vC771ghPHJMY7PwZuvHEC945P3PMKnfnyQrIgYEs+vXrWOP7xxe1jFJtplUSv1EYFjLSVX+OGBaf787vsZdyl5ywS3ZWTJtcWMeKZcjUJT7jhouOcz3+em7eu4ZsMAV20aYHss/M41GxjPIr76wCyFpFy7ZpgK8MiEZ1JimrElUs9EIydXkCQiiiKkiIldhPEOjQpiE1E1homZkC7GSjBzRVIlSus0xaCiFIVn2hvqsaWWxljNMECkguQJhSotHI1WC+vqPHhwgv/rrh1MtGIKiXHaoFF1VFyBNwPMFj1lnM6pIT5CpIWTOaLqwkDbTs/3qjTU8MMjDfbMVRAUW+qCbdNA6PVLqAmEHxXF57P4yDBqB/js4wXv+/oebvvMd/jZiRaDScwLNq1h7Ypl9FjHpC/4wuNjSN8aor512J7V2FofIkHsGxEwEUYEYwzeebI858CJWZq5EterTPp+9rV62S9D7JNlPCZD7HH9HKaXIjIYyfAmojF0EV88YvgX33mcN3/6Hr712ASpMbx4wxBFMYvRBhvWDJImlsfHCpyLiLziEQ40PTMYVicp64whcWC8xdmc3jhjeexpeM/uEw2IUpx6MpS88BRFEcSyQCOf48icY8rBdauq9NsGsYTcRU1jwaQYMYy3ZmlG0DdUYzbq4bFoNTtNHzuiAR53y9nlV/NoXiGzUloSTw1vMwRPb9GiPzILltQaSpHqvedYs+Azd+1B4zqIxZsITNAkux0hmJChKmSpKteh2YgogjdeuZrXb+6h2thH1DxKXZXCwWweVvpM5Rnjk9NYSRiQiDU9KVnjCNW0gZFJItsqjbuBfCPl5FIEm8Sk1Rr37jvBIe/Yuizh9Zcvpz8fw88dRBujtMb3UvOz1LHUiNlWcbzv5esYbO4hzg7Rg6feVGZnJjB5gW+0iCopg7WUegS5g0cPjqGFJfZhEcSPRyc4MluwbTDh5osH6JODJBxiqHGQtz5nC8si5Wih7D4W1t9HpSw0JjTatnR0seeOHUeZcZ5NPSm/86LLWD6xn76JQ9SmTlDPj5HlE9y7f4L9MzmbexPeet0aqtMPkZzYx7LxY1SPHGJZc5qay2g2GhgEu4SzKjQ4RW2GMZ5h4xiKFq7oFdVCvQ/r7u+bcrzz7/cykWf4qI4zDuOKjjIXML8mD4I3LfwNCQX+9FUbuWZZwlzu2TdTMDGdsWUgZdNAzP7ZnD/80gNM5Sl/fOtWLqsaJtXw05mCRgt6FS4dilgfW752eJzf/8oj9KQ9fPYfbWd5anjHV/bwvSMZNHPe9ZwV/OY1K0iNMJ45jsyETF09VWEO4S/vOczdeyd450s28NtbehlvFjw0McWES1jZm3B1bwTW8IFv7Of2vTNctSzi375iM5Gx3PzJOzheGcGUQ2F/lPHWbVV+59otJGI40sw5OOfY2B8xFEdMS8G/+dZ9fHu0l2Zrjg/dtIZf3zzCP+yZ4v3f2EPL9oJpkUZK31yLf3r9Sn7t4pVUI8NUVnAsh9nSv/FffjTK13Ye4S1XruCfPXcVFSmYbMJow5A7obcG1gifuHMPdxy1zC4y2c67NYKe5k1G4iJevdrx4ZddyopkflWv/dAfffBDYJnw8Dc7T/Cd0QbORmhnFtH2H5VJFhbpF9IJchDUeeaOT9JXTVk3VGFjPWJTf0pf1bJ3MuMT39zJT8Y905Kw8/ExetM6a4arbKlGbOmJ2NIbkUSG+w8XfHnvKI+MT1DRKjddPoxGli/snmL/jKOIa+w+OsOhiSbD/TXW9sasqFuGapZKZJluOe59/AQPnphl9MQssXi2ruxjQ1+Fdb0pwxXLpIc/uXMHX9k3QQvlxpXKizYtZ8+c40u7jtE0adl7DDmWHceOc3AuY2V/LxuHEkZ6Y4gt+1oFf3bvHr46OkGzSKnahKs2DrJ5oML9J+b48d4pWlIldYpqTMOm/ODEBOOTc6wYHqCnHtGTRvQnltgYdo9N8sDxWXYcmWL/0Smq1TqrB+usqkWsqhtqsWWiqfx47xS7p6ZxJB1NTFm0UEaC2RuvvOXKEZ6zvCfkCC05FPWZKpbHW573fukB7pms4SVkfQgXDAqFnCKWYX6aEVxRUZHTZx0DsTJUi+hLIk7MFhxoREw5R+5buCglNlBFqFjP2p4E8Y7COXLnOZo5ZsSSFYL1hoHeJta2ODY9QK4xsQRlq2IdkWQMVmNqVnCFI8szGs5yrKm4SBCvDCQxy6yQxpa0kuLEc7A5wbFZISMikgnef/UIv3XlFr55fI5/+ZVdHHdpV7oXMKKk4hm0woiNqUcRR7M5TggcabbAGKx3tEyd3kgZtk2MSzjcqpKppaZzOFEwlsQ7rDTor0BqhUolxRWOVq6MzeZMO0NqY1IgjYRldUuVHKuOmcIxrZbxTGkWEUS1Ll7attBuaaAs01k+/quXcv1AlbRLgRb1uXqEn017fvtvHmBUekJfbx/Undum3OW71L7uOaYP4wi4tm8rxMEVQG48UkbhKBHGWwqjWKcYcV2+bRPWpGsU0q8aJbeKGo9xSZBEIdsx+Cgk25UcTKs0BgXvn0qZMkYEEYdxZYVICEWzUQauhnFK3R3nP775Gi7urfKnPznM5346xpSP8NjO2BlpcGTlAqkT0hxaRplLFOOVxEFhwBFjPETqMUYoiBE0uGTFM5s4Kk5wassEkCGqXlXxmmBcONfbYJdXwGiIv42dYj1MVxzeFCROgN4w5xIJbmG0Q76K4q3lunSaj77uSrZUDba7QbcF+/HMk0U9HRFyLjCA8YLRCCWlkJRMUnJjyS1kpgyUJAQaGlcldjU8VbxU8JLixFJYpRUVFEaJyuvFroJRKV2a0nFxBguToBoBMSIxiOCNw5AjkpMbT2YNmYnJJCI3FuuVmplj2E7yhkvXsLknYbZQ7t11gExtqXIGKIZCokCGGArjacUFznoiL6ARuYlwhuCSxiBaCWdKC8SR2YimqQDgJMPgUYlQEny5OZOjNscAsVMi7xCE4DGo0rI15uIKaIr1KWiMhOgCTGcJbUj4YNr5AF3GzdduYySxZYed19+Ml5CqbDormHIFnWGjRBk4u/T8cBFEy/+MoiU53hSoCenPLXEI9BBBrceYHBflpU8/+AuMCVkBRAxqhMwajITWLMaDEWIVYm+wBGkiohixmGBKwWpE4uPw2RsSZ0nUkCgkqsTqWVVTPv76i/nYrZfxz65bR2wMn985xtFmnYKQQbTzXGVvMuqJNOhAzlgwBiOClRDkasu0bJgCjbIQDSyUWbkLkByjJhAtpiQuDC5WhJgIwVBYobAGTHBOWSkwUiBSIMaFbD4aIRJ1rccJCytFQ5qmxAmVQtkuTW5cXaFHFClC5o82jFKuxkFDvvlz7/gdmREaSwj+DGFcGlKYhpoIEx/RkKffhNCsbkUlHBXg24kQS59CCNQo05S1G1sH7eu3FymGzZQex3aAlFVl/UCdPhvTV60zeqLFZ346xl//6AiTGpMvsbo16LrtHMLtEnZUYQTtpINFFBV38lgsZXJGQobSbgiUuX8takJQR6iuMndxGfgS7tWuH1nQFUVyDE3AMReBmoJXbVnJKmsxAs6GUbJzfKGqmcL/d2Ca996+D5UErxp6Z2lVWwrtOpf2PHwRPKFs2qUrQKjTdnFPSrRcTlUWRWF1jlvq+HNF1RasTSAWT9H0HC4sUzYhE4+hgfh4gQG0W7c5XyE4Im0gWmHGODaZGT5963PZVo1JEiWTYINoP5Xp/Ed72jaPM3ncUx1zyro61f5nEgqtImbXXMKOmSqPuBpTJkbJMTQ6MXiLe//5D4NqQlwk9Pgmb7tmIxuqljQJizbsoiG787kaRcQqHeOAdgILl0ZbDwj+/yW2MqEAGpIldjY/n2zgpHNKrTc4debPOd3x57o5FA84CZNZV7qNxUeg6UmttF2GZ3s7LVQQEprS4qr+mDdsH6aezEte2+a2bNamPWr0xYaq5uXuYKc/k5bfPmrxdsqDTrF7wc9L7jx59zlvElbnhHHZQWcKasOMoYxVWNwAzneogOJZleb87o2XsCwJvvz5IE8haCgBHfKXJULdT4dRfkGPb1fZM4tns9pDFT2bJTh7OBdmI0PM8M5rVnH1QERNQhD8/LO0FdSwdbIr9SWGrSvK6JlyvDvT3v904Oer6p9JyJKcuCKnQsZbrxzm1y9bTjWSsNB0iZps7+mM+YOx5eUXb8R4jzcEi1nbkrbEBS7gWYAaRKU06OSY0pJrvGc4avGrl/Tz9udsICkNP+3cvnSx2M1kcJlLeH/cNSNV+k0YA4VgXbqA8wcqUJhg4VQE1OLzFoNuhrdfNsTvPm8tA6JUjMFqcLe3ZcRi4mn3/CD/YaRqubzfkGQ5aITomafyvIBnBkY9mUkoJCEhZ13S4N0v3My7X7CZ1Q6Sskd32yVOxWBH7IvAQBrx9hsvoVcUfIIpXxV2AecHIu9JnSfyBXF2nGuXNfnXr72ct1/WT0VK5qW0MkJp6+yocCepCgusOhWBS3ssV4/0Yr0LFrWTdYsLOAdol6O1ezIlpZm6ewtHB+uD4JD2knjjiGSWDXaG2567lj+79SpuWG4Qcgw5WZl0eaGGf2osXLThoXDwo7mM/+mzP2TaDtHi5ACOCzh7tA1mwTMZ5uNq/LzJWg0eWwbMFCAZCIgaEudJvGNA5njlJcO89bptrLdCTQucjYOLPTg3oZTiC2217WbHgtH/JPJdM2MyMnzixwf4zw9MMGurYcHEhQbw5KAGUY+lRSuCyMU4sR2bStDKQ5i10YKIFlq0qFnl8uE6r9q+lps21liZhHiEKC/jA225svdJk08I5MxEOdZS/tV39/CF3RneJj8Xjo3zGYqSJJ4XrO5jOptlbjzi0PgEeYcYpSeKGK5XWN3fw6aRfraujNk+ZFkXR/TEhsQEkR6pErUDNkrHcBthscti+MUjPCwm3wM5SuKhkJxdDeX93z7IA0fmaGkc3japIVzLlOPVYtfkBczDS3BlR+qxmnPL1oT3P/8iIoSigEZR4LsiByIRqtbSZ4Va6b6OKhHeeyrWhuAMX47mpSYXrPXzOGfyKVsoCqqehsAD000+ctdevjOaU6Q1cgrSQkicDZknTLdIuYA2VJTclCtwsgabByI+8srtXNyXEnXNvxdUfimQ2x0raAbl3vY7ATXoYB0Rf0pqnxgnndNtB66qcGUa8S9eeBGv2TREf56TOk+tUBLnF7TaC1gENRgfYckYlGnefcN6LupLScrxuB0o1vavh+ic4FoS2kNzaYtv6wXtqKqy0bTrfsnOfgY4qee3EcR7eG9ty0QcyjxffmyOv/zeYaZzpek9LSmf4Fzv/guOGMOwTPCeG9bwus1DDEbJkrb2pdDWsVRLD0v7tPJDu+d3eu85tIQnIF8QDyqO3BqmFHYezfncw6PcsW+cE7MxDWvxduGyjoVoh1AJvn3UWRTwmYIuKlb79TDtMLT5owjPVD5XNzEhui+EmVlVRmLHbc9fyRu2DVIXRyrRGb12plu5btPTiW56JshvQz1lCLUJES4I40752bFZvr7zce4Z9RxrQcM7muoonBJHcQjAVKXwEGch/j5PbAimiFhQyicowtMOJdjMazk4E57S+BQAb/KQTSsI4JJ4iJwQu/JdNwLOhBhaS5Ne12JLxfCu6zdww6YBessMbu1ef9JY+yzhickvf27HhSshELOlMK3K2FzB4+MtHjo8w46xcQ7OzJCJhPfUA2o8/WmFNOrjvsMNJjTGSbHkPZ4tKJBbT39WUIiSWYtqLSSgIA9GF+jMl0OvF4wPq2/b0sGIMGSavGxNjf/xeRvY2huHd+KW3fSk3vos4wnJXwBtC8cQmet9EHHORjRVaHpoKuSuzP0iYV1ZYoUTmedPv7mfbxxpknVEV/h7NkV4euCp6AQ3rBlhz9g4h6UPV4TVPh6D61joQng5KL7IMaokUURsLL1Wed5wymsuX851q+oMRBD50CDaMq6dOeUsJPPTirMkP2zOODwZEQWQlqFPpRraifEvL6uCqNICvnpwij/46s+YsMvK/mMRwqzhmYcialDxROq4YajFh199FZOzLb677wQ/fHScA1MZkxIxY+PwzjoNq4YBYtdkSJqsjApetH0Dz9u8jIsHEobVYFVC4u422eXfpefgzx7OkfwQAhlG8LiMky+P6UxF2tPAoAR59RxpOD78zZ/y+RM94MCTkvgirGF7BqEQSHcWlSa9sfCnL17PK9f3YUXJMEwqHJrJGZ2aY7zZZKZZUBShJ/dUIwaqKav7a6zpTRgQqOARzUJwvEZgCEExhA4A5RvmzyOcHfkltNRrT4WyjZTkh2aghFHju8dmeM/tDzPaqBNJSuQdRWmteuagCAWiFvVz3Limxkdftp0VkQlZxoSQXbTTfMFpaMCCEJlyGesCfYj5dY1lTmJth8K3h7nzjPxzKs7piO9G+yhpfxa4ZLDOG7evZBme1BVdPz6D0JCF05CzJrW883kb6Cn3d3eFdrP1hBcZRyYiMiHvPyXpC30eJmzPxjOdA86J/LPBfB0o4OmN4E2Xr+Ylq2JiHLnE3WNF51hZ4N9+iiFCbiz9Edx2/QauHEyoRGXeaEPnpm0O28/Qbgpt26YujqWX0u5abp1/XebY8wlPG/ndz9pVDcTAmgTe/dLNbK1nVHBhAZkqqp1qLVvCghZxzpi/gqLeI8ZQ9XO8essgb9gyQJ81WGtK4sORZd/unNn9DO1/JzeP+aNP3nf+4ZzG/DPFYuratAoFOcoDM4Y/+sJPua9R67zAwYstV+V2UfakB0tBtMwZYFPIW7xxq/D+l1zKMAVewIYcFl3wC7zgbUJPT2v7jEXlbT/KqU98VvCMkg8apksoaItpFXa2LB+8/Wc8dKQgNz1QLhtQCcuxeUrID+HNsVf6iwavu3ot77l+GSMCqKMlQkK0yO4+L38CLpD/1MATlmdTkCHsbQkf+dYjfPXgLHNJhSizwadQki8SAknPwCx+CiiRc6yRnHc+dy2/dcUgqW2CpuQiFGRUiFmYq6p95jzdQWqdmsP27yfhAvld8KEiwvze41UYLZQv7T/Kn9+1m+PNGk4szlh8GYMu5Qr4+dWzodjCwqXb7XcCoWGlbYSn3xU8dyTitpds5cqehCoebHiLRShKg3gJ8sOVFu47uXnM4xT9/rzFs0N+2UXalaUaYlUbruBYy/EXD57g9p/uYtz0MBtVEI1wDhwWZwxKgcF1EhVYbzBegslZHFYdJmsSRwWXL+vnzVds4lXrEupxRNTWvEuPHATPXXC8KCx6edySPb0sf7sJtsk+VVjL+doYnh3yS3STD+BUsUaYyjy75zLu3j/HnY8cYu9Mi2lnmSMhI0FNHkKay/PaoVIpBRXJGKwYtg338JpL1nDt8ioDKAOVKIRALWayPa3r+qFTri7iFzSCReSfKc63RnBekN8N0eBGzoBpp0wXjoOzLXZPFuw83ODQtGMiK8IbvVURMVSsZ0U9ZstQykVDMet6E5ZXI5ZFltgKhULKKV5GdBryu3GB/KcYS1UypWFHS3GsImSE9QRF4chVaDnFldY4EYhsyGmVilCNIoxRnGkSYzFYvFrMqbTFJ0E+pzj2VLhA/mng2xVUkt8xmXdXfImTCt22syPBnlC+CfSJJmenQ6mXnuPZ5z/OT/LPEyzV6H6RcD7V9flVmF9w4jkP6/sCnkFcIP+XGBfI/yXGBfJ/iXGB/F9iXCD/lxj/P2vmRbA6RdtZAAAAAElFTkSuQmCC;" vertex="1" parent="1">
          <mxGeometry x="-539" y="146.72" width="88" height="66.52" as="geometry" />
        </mxCell>
        <mxCell id="sO_hkE5k5uEZkrlmcx0e-30" value="" style="endArrow=none;html=1;rounded=0;entryX=0.07;entryY=0.4;entryDx=0;entryDy=0;entryPerimeter=0;exitX=1;exitY=0.5;exitDx=0;exitDy=0;" edge="1" parent="1" source="sO_hkE5k5uEZkrlmcx0e-29" target="sO_hkE5k5uEZkrlmcx0e-8">
          <mxGeometry width="50" height="50" relative="1" as="geometry">
            <mxPoint x="-385" y="143" as="sourcePoint" />
            <mxPoint x="-303" y="225" as="targetPoint" />
          </mxGeometry>
        </mxCell>
        <mxCell id="sO_hkE5k5uEZkrlmcx0e-33" value="" style="shape=image;verticalLabelPosition=bottom;labelBackgroundColor=default;verticalAlign=top;aspect=fixed;imageAspect=0;image=data:image/png,iVBORw0KGgoAAAANSUhEUgAAAJQAAACvCAYAAAAbgfe6AAAAAXNSR0IArs4c6QAAAARnQU1BAACxjwv8YQUAAAAJcEhZcwAADsMAAA7DAcdvqGQAAE+8SURBVHhe7b1psCXHdd/5O5lVdZe394LesTW60VgIgCA2EisJgotI2uRIGluSbWmscNgOf/RETMw3fpuIiZjwTEyEPZ6xZcuiKFsSSZgURYJYSIAkQCyNfV+6AXSj99f91rtVZZ75kFn33nff6/2h+zXUf0Th9b23KiuXf548efLkSVFV5SIuYplgBr+4iIs4G1wk1EUsKy4S6iKWFX+nCaUoHgccR43U41xLQAF//J//zkD+rirlgRsFkAMpxicA+NjFjC9v9D2WSOyCIqASvwzfl2Qqb/m7ir+zhOpCfaBAZIOXwAzxIF5Bo+xRAwIuFRAQAqFMWXv9pOvj2t81/N0mlILmBZIIuAI6LfyhwzQPHqMzOYftFOjMFKoK1RoYQ7ZpNdX1azDrJvD1CqaTgs3ABKJdJNQnmFD9QmPRZ/WoK9C5aZpvvot/5U3y198ka7QQDziHRRF1iAiqilcFMbQNtKoJ49u2Ulx/O/UdOzBrRnAVAyJYpDf+LcrFJxufWEKVKtAgVBXbbOP27aXz3E6KnTvpHD1G3UNaeGypG3m/kALGgPdB+VbFG5DEkqc12tUa9sZrqX7xHtIN6yGrBgJJOX4OVvEnV8v6xBKKruINRn0gQ56jx6ZoP/Eb5p98kur8DNVWE/UeIxYRwZSNPcjISCgiocJXimJAUlpJytxIjaFbb6R63+2YjRvA1iN5Bkl1kVAXJjw44/G0SJpzuFfe4ugPfkrtyDHqzSbGOwDU9BrYEGZ7x0UkVRcqYIWO9RTWI0mKW7WG7Iv3knz2NrQ+ghW78JmLhLqAUOouUTwpBX72MLMPP4p//GmGZpokgClcEBqiYWYXcVJCaZ/dSg2ooFYpbI7VHHEGlRqN8VGK269n9OtfxYxfAtJPoouEujBQjnF9X+jBo8x973vw8gsMNVvBFIDpTvsRUNGuXan7fT8xu18Q7Andr6LybUBNgXgP3gIWbw2teop+6hrq//Af4sfGkTQF3MlJewHjk0UoynYPOpPff5Spv/zvVF97nWprCiNFJI6JdqUw1Q+EClJjcC7Wq5xIpEionkpkIvciA7XHQhVo1zOa117N6D/8fXTdJThRMsyi93xS8ImSvR5w4oECP3mQ+b/6PtXX36DSmotDWznz6odEMskiOqlIWJ4RRQ14gqFTtBSF4QpPmb7qDGmJQjbfpPryG8z95Q8w0/Mk+sklE58kQilQAB6PzkzT+P6PSF9/lVpzGpE8kKG/KRe1qqAIXgQP4W9qmR+pMD9SoTVWozVaoUgMXiSSbRDlO3qX0YRqS0lfe4P5H/0UM9uI1vdPJj5RQ16uim03cY88QfN7DzLUbmAkkEOj5mQA1AT1xwg4ELGoCPP1Cn7NOtLVq0hXjZKsXYVfNYwiGJfTmpmls+8IcugwHD5IOjVDUrSxgPW2N4wuYGsYEr1xzA0PU/vmN8nu+xxkaVTqgcFJ4AWMTxChFO3kFLv3MPtv/h+GZyaxxhMGrdDAggTtRQUv4NQhYqE6xNyGNQzdcQvy6dtIRupQTSEZGAoVKDx+dg5/eB/TT/yc/O3XGZlqUGsp4gUZJJQoKh4Vj0OYn1jF0L/6F6RbLwUq0eywlMS8MPGJIJSqor5Ajh3l0L/5E0Y+2IuljaVYMKYLgsTZnFfFZwnNsVHqX7gX+eztmIkJ1HiwtpRlUSvotbYSRixxDinmcPv203rocYqX36Y+P09SFAvVtC6hgozs2ITpS7ew9l/9U8yq9XhrMZ8QMvFJIRSqqCtoP/g9/I+eoNrOyROPQbH9Jm8JhPJeadUTZjdewiV/9IeYSzeDrQHgpADAhBW5BRJKARc/WQ94RS3o9BTuV88y+9CjDE9NkxZFkFRCnBVq19tFgXatAnffRe23f5uiXv0kCagLWykvqaLe4Q4eZP6p56gWbYwUYWEXFjRVYX2wnNfq5J/awdp/+cf4y66EpBbuU8UWBuvKmViPTOWnJKo83oCzggM6o2MkX76PoX/yu0yvHcUnEqinRXSP6UFwZJ0GzV/tRA8cwToNOlZ5wwXevS9YQnUbwQN5h/xHP2Jkeg5jFSwIPniUiCBiEDFYETppRvPqHYz+zh9hVl9JYpNAFSFYs60FExXsJeVGeLPBY8VjESpiEJtSufFGxn7779FYNUquHk8RLOuqiANRgyjYjmO00ab5w0eh2Yjzy4ilXnkB4YIlFJFLnpzOm2/hXniDtBMGJBXByGJ7j2gFv2Ejw9/6EmbDBIuW2AYfiAjv6V8vXii1utLMpmQ330jtS/fTGh3BiaAahrweBLCIz2m99SbtXbuDPqbRjrbgPRceLlhCCZCoYtpztH/4Y2rNPOg0x1EJFcNsfYjsa1/CXHU5GEEHCUUfQ/rIVZosF1ZWvKn/fgNkdcznbsffuINWBkXiwyAp0USAjYq4Y2R+iuaP/wYaBfhApvaCd1x4uGAIVQ5xGj+E4c6TP/cqxe73EckXrrN15UKQLYUR7G03k914PZAEI+aCu5cJYjEj4wx98T7m10+gSdJd8gv5DiYLpCBpzaPvvEvzvV1dXWtQnl1ouGAI5YFWOfCIR3GYVpvi0WcZIcG4MF0POlO4DCZM4dOUxvo11O69A2r1MNsjzAJ7qR8f5XAX7uoXSX1irESUQsmWK5m49xtoupqidA/Gd3c/FCguddRcTucnD0JrhrSAIe8vaDvnBUMoA1SJi7KqiBY0Xn+TfO8+Eqc978h+xF7f8kr97juxGzYsWMtbgg5nB+0NfVqpkHxqB63NG0hcWNcDg/FgcAigYkicIu99SOflN0Db+O6uhwsTFwyhRPsy68E0lemf/IhaMY/4fBGXIBg8C4TWpZtIbv40WonmgUU4cTUsrUMNIK4xa/dmg1l3CfX7P4er2yBVxaHqEbVYEiyWRIWh+Q7tv/kxNKewx9EBLxScsI5WEryExV8nBjqe1s43GPpoH4lvham5sKg4OY48TRi+93PImjVdF5WPC9I3NIoHbIrdcTlzV66lcAXglpBAgsUh+z8if+HloJn3YfDulY6Pt4aXEaHjG4wquCatXz9KrZMH1dqEPXOD8MDspo3YG26gSFOKbmPGcWmph84SwaakYDTocSOrGb7vyxTDwz0tTAVRg4mzP28d1dxQPPoKtDoUBGOnAs3oRXGh4IIhlAIOBZfTeu0NzO73sRr0EMpZ1MD91IeZuO9eZGwVRrrbD04R/ar4QrX8RAi+oD2FXZMMc9VW2lduwZNgXb8yH/56EYyC+3Avc2+8DtHXXYD0QmqkCymvCog6aM/TfuQXDDXzaCUIhsxBVnmgs2kLdvsOSDMsil1Eu3MAEWR0lPpXvszc8BiYJOQzXqJg1WDEk7g5ph99GNMqUOdQ1eD/fh6yfaZYsYRaUIdRITedDvkrL2Pf3411RezD/VdoJec8miQMfeE+ZM3anp/4eYCIQbIa9oqttK/eSrFQOAWZpgbwpNKh/t57dF5+G2l7ciBHo3PghYEVSaiyA3eXIYSwfalZ0PrZs2SdHGej9uqjToIP2oYqIhVmN6zHXHMVUik3BPQPNeUbToRBsvY/f5oQQYaHWPXlr9KoTMT4CcEDwVntaYgKw21P44lfoO0GJpYNwoz1QsCKJJQQhoJyI4AStobnb79D9s5+rBMKE4aEBVFQFHBCbjJGvvYlGBvpbkToSzleJyPVIJHOjFBlx8BaZMsm2lddHTyANWzf8lLa0AyQYDUhe+8dit27MEW+cH/oBYAVSSgiobq6g1d0vs30Y49hi1lEC0xpKQh3h8sLnoTGpesxV12OpFn3jh5OnxRnCxP3xOT1hFV/7y58NYEYnSotykIGQ5YoVOc6zD/yODRnonPeQIIrGCuWUJQyRIGOR3ftp/7WWySmjcGRKJEcPWti4ZV8ZJjRv/8AMja6xA6XQZzs97OHxM4hCJIkyObVNLdfgs8soh58kJSBVmFXTeKU5O138O+9S5LnwQFP4u8nlKrnHyuXUNFMpCg0mxx96CFq7RYSPSol7trtQdAsYfKSYeSqzZDVzwlhTorIARHIVJBqjeGvfhFXrYTKL/cFRs/OEJiqICvazD72NMy14hJSUM4d2qXfSsTKJVTs2Unu8R+9T2XPm2AMvmRalyzBNqQYOkNVLvnG/cjIME78ypgdleoRpZQaQrZcT2v9xu62rd69HsShpsB4qLz5Ef69PZB3gHLDBbFckYArDCuWUBo3ber8DFM/epjqbCvOeAQvZkE8AtUQKXN6/VrM1m2IqZDEyh6s9vM6aAghMNnIKEPf+CqNylCwlquPqrsDcRRJ2GRqG/Mc/enD+LkmGmMqJN6v6PW+FUsoAUynjX6wi9EPPsR2CLpGf2WKD2FXnaPllbVffgA3NIb6NJoTFlq2zyuZ+qBWkKuupLHtKlxWCSaEWC7VYGtPnaMibaq730bf+TDokWX+V0IhjoMVQ6hyYaOsK3UenW0x+aOfwdw0zrWiht4PRaTAJAmyeSN2x7VQqQfLedcdc1A+Dcqscw8jBurDjH/1fhrGUJgY25OgfSeFRRwgjmrR4Nijj6PTc3iNQWVXTKstxorIWuybUTsI1BKfo3v3M/r2QYxzkPWH3Yn3qEec4rwh+9pXkPooCRL2uYlFFoTQCTqM6e4fPj9FV8DFGV+6dRtu6820bYrGTV/Bal4udgupSxh+/y10/x6SwgOGEFuv1CVXFs5PrQ6gtDmVdidVxc/OMfnjh0naHQqBThJv7HuGQvBSYf7KLSSfuhpJ4166WN+h4mXFSCZiDpQgbDsVQ/VLt4Wt7gpOepO9EE8qkCadb3Lsp4/g56bwFP17ZFYcVgShkNDe5YgmDvyufdTfewsjTQQXPGd9nwebGLCGWVNh7Le+gg7XI4F6CHdGd5IVAgFs2XHShOTaS/E7NuOtCTtk3EK9j7BHhuqu3fjd75B22iEO1QrFyiAUISdqBO/BH51j/he/ptaawZsOiVeqRXALUYnSSWFWO3DllXDdDky5pbu8VihKk5MIpCrYSkLlgVvoZDbscg5W0IGHPGlnjrnHfoE/OhvjM/R8psprJWDlEEoCYRJV8gPv03775e7QhbEU1uLK+PRqECd4A8lXb4OhSvCLWoSVVNV9iKS3IojJyLbdgmzegkoMgLcACqaBkCPvfITbuxdcJ8Rz0GDodCuojEu1wnmBA5x63MwUM48+wUir3VWGejpDr+KcNaTX7KB27XbElJ5O2jdfXBk60yIMSFAViwyNU/vy52kllYHFYAUpUAyps4zMdGj87Jf4qbkQiVhDjIUkCraVgBVDKEExrkWx611q775P1cdZTNSZjDckXrBqcCLMWcHedw9SnQCRMgrTYLIRpagbHEvOEwayoTZBrr+OxqWX49JK3y/lzocKUqQYJ1Te+xD37h5Mq8Cp6/WdFVK080KopcZ98Qqzc7Seeorq3DQU+YK1OqNgvCI4fGqobd9K8umb8GJjQoMpXhgQQrZ9bZShL32B6XKJslt0A5oEu5pRkk6T2V89i851EGywS60QMnE+CbVoUCoK9N39ZK/vQ4oCjA+bEqLlKHj5Bo22MJbkgS9isho2KZWOOPuDvnGl/1q5MCoYSajedAPmihtopTbGk9IQelEkLNkkiiGnuutt/FtvYguP0aXihp4/nBdCmVLilHJFQRtN2k+/QGWqiQrkiUbfuOjAK0FncDah2H4lZsc2xCZ9fCm76lLXyka5u0vqddLP301u0+jRGQLEiipq4megOjNN59ln0enpSLrBFM8fzguhKKfOcagS53HvfYC+8TqiLVR6YQy7pFBBVWjWRsm+cBc6nIHIwGrMhUGgfgQpHTZYFED1hq2YjavCdxJuCJaEsoMZjFfcu7vId70NRWtF2dnOD6Fim3sCufRYk/yZF6jOHEakjfWe1IFqGTkpiP12amhfeimVHdegpSFwcFa0gir3VBCqQlATDJhmqEryhc/QyOKvGpdhyp09EoK5pK0ZGi88i85Mx+NC4hB5nuvg/BCKWDdKWIvbuwf35hsYzYPupIKoDRHiTLwZoVlNyL54J4yMIRo3H6yU+fIZQmIjqAQLukGoXPcp2LQxKudxCaFfFBtHQht98z3c7mCXIq6DatcudX6Idf4IRVhiodGi+cyvqc9NhYi82OBIlwiFlTDJEcEnCX7jBoavu5pQ7TYOA/2Vt9SQd/4q95QQsyXl/4xFxi8lu+de8rQSh/9+H03FGYeoMjbVof3cy2hzPoRfXFDO81Pm80ao4IZR4D7YTf7qm9BoxfKHPitEg104F4FWrcLo/Q9gqiNQbnYR7ZsrnqjyVjCpIv+73UAgV096w7XMj65CJYZs7IOKQUkQr+RvvEuxex/qggOeUcX681fO80YoAG3P09r5NCONBsYmC0S78WC9x3tHkRgaI0Ok11wLPsWHsBMrkR7LAptZdM1a6vfey1w1LitFH3oVg3UpiUsxwMjMLK3Hn4WpNsSAZudz2ndOCKXl3rTyAyDe4/YcZP7l1/GuRe5afU/E2Y13WDwtA+O/9SVYPbGgR58+oforupRu4er/r99CtvCu3rUgmf6MnH6mFiHM8BKyO25memyUjgknP6CBLOJN8HVRj/U57NqN23sQchcOhDwnrbo0ztmrw2krHjQ2WrtJ57FnGT/SxPsCknLyW9IvUFCtUIyvIrnpxmjc8137VMj8yYoQhtCgjPURoNuLFY/H4ckXkapUdMN3Ll7ldwvTi1cv2TNASLcDiFHMugnGP/cFSOpxl48JjngminDxiBRUZyeZ/80voVlgi1JCxTKfY5yTNwpQ0aiEK4g6igOHaL79NqbIMXFv2gJ7ioAXy3x9lPGvfwWpZV3XDpGw9+Xss2/wWBwJnhhK2mnw3246dL5AGgWmUWAbBUmzIGk5bMcjLgy8SAhz6EVx0ifbznDUEaCqQYLn5NTvvAFXrQaSSOSRltuuwgzQ5gW8vZti/37U5h93GKwT4tycpKDEwsd/N3Mm/+xPqf7mOap5OzJNsOWZAhL8fYok5cD6jWz61/8CXb0KYwfPHDjNmhssqTjUdUAV6Tj00BFa7++ndWQaOTaPOTZNURFAUCOYahWGawxtWkO6aTW6eR0eE46AlQQxSZCipc3otFkV68iHR3NTYB24P/9vFI/8mqrXMA8RjROSeKmhk6bM33ot4//kH+CH13TPgTjXODeEiloKGKTZwX14mOa/+78ZPrg3rlmFASz4gIcG8d7TqlTIfvt3Kb56F9amhPnOGRCqv4Qlub1H56ZovvsG7Vffgbc+wO+fZFTB5yGQmRcPSXCNSdOUvNVGrMGppy2eysQ4xbbryG66ger2y5GxGqQJIQB6OeQEuatlbkNxj4MF2ll3mDWHP+TY//ZvmTg4HYjSTaiEkFtlev0EY//0D5Gt12JtoFSZ4pnQ+0xwzgjVHQuKNvN//heYJ35FtdNCCdHcQqeOxRaLwzG1foKJ//V/wU+swhkh667snRqRum0Xh9qwbSTHHdrPzDNPwc4XyQ4dI3VgvUa1JGZUyzWPaLsoWSHBoKox8VaSkFtLcziletfN1D97F8klG1FrMEnWzUT4U3oIDuZ0EGEGG16rSLvN3F/+NekvfkWlXSxaDFbTQcXjZQR3y21k/+x3ybNhUoQixj4vz2f/uHEu3gFAYQBTUEwepfnKG6R56WzfXzmB2wrk9Rr1W2/BDNWRGGj5dKnfdfg3LlT6sQM0/vuPmfzf/0+yRx6jfvAA9VabLHdYF3bmhiz1reBr/N/Au4XAt6woGGq3GTs6i/70l8z8H/+WxoMP4g8dgMJ1/eAFE9T8qGedDGWtCAJZhdp9n6M9PhbX/fos56J4IxSSYHPFv/0B7sBUdwEhKaMnd1P+eHFOCKXROKmujT7+c2rTM7HAfTOXKHm8B8Ugl6yjevc9kA6BCFk8u+V04AS0KKDTIn/+BQ79u/9A8+cPU2tMk7ZapHmYMQbFus/ZG0ITiAk6EYS//RmQsFHCikFESFUYbXrGjxzB/OznzPxff0LnNzvxczOQe1zhKCDM4HqpHAflcFmqAGDWr8defyPzJomEjKTyIC7B+hRByKanaTz4U9JWCF1NPOzoXK1QfTyE0t5V/jNF8FNHmHz5eaRYfABFuM8h4iExpNu2IWvX4WzIYgh/eGKUk/2y7qyCNjo0H3yM+e88yPDujxiZ75C44AV53AiW/RJqEFKGQQvTdtTjjdJOlSIJSnOl0Wb0o49o/dl3mP7eg/i5eYxqnzHkdBA2rUoyROXee5lbM05hQ5QDJSwZGGexYf86pmghu/fgDs2AhzwGfT1Xts4lanOZ0EcoD9jCw8M7GTo6Q8W7sLKOCcFURRBRVByFFMxsWANfuQ+SJPayIL16fxejJFL5vlwVN3uI6e/+KfLIYwxNHqXi2qSuoFo4UqfBOa2LPguzRIlko5Qq31m+AMAEHyVsWE9MyjjqYhBjsOoZbrQYeuppOv/lT9HDR6m029S6CZwaFGhK2BxqN04g2y4jtym+3E5GVNAIElaMozpzFH38USgKUn9uDwxdunWWGUYVd+Awjedfotos7U4MFFPxBtr1GsmndiCrRoO01zAganfmtDSk5IE6RHPMvkMc+09/TvXlV0nnpkldB6tRa4snMZTHXgcoajwucXgTrtBSJkqyFCRFbYJPLM4YvAn5sQqpgo0NHNYZw+kJabODPvcK0//hT+DgfvC9oehUkcY6lMyw+vN3kY+PAmEY07hTRk3v2A9bdJh9cSducjLU3ylI9+XC8VvoLKDStyfTeUSh/eyz2OkjJK4dDHMaTxbvnjAuOFKKSzZR++ztUJ5jd4oIZFLEFejUFJPff5ChV96nOtPGSnROCy0dnyjFjeJj1CXvPerBW0vHezrG0DaGthXyJKVjLblYcjU4H4Yij0XjkgjQPWempLiqoeKF2ru7mPxvf43OTFEURXcb1Mkm2aLlrhYFsdhNG5GrLqOoJKgE9x5nQvl6zyjZzDzuyV9DMRey0ituT8p+DLDf/va3vz345dmil+egU/i5eWa+9z2GJ/dhiwJIUWNiOOgIA5rV8TfeTHbbDfjEYkwZcDUgNFQfdCHntFC0Oc/c3zxM9sLLZM35oGsLfTKs/NP9AV8e5lOrM7N2HXbbVvTGa9Bbb8R8+ha48Qbcp67HX7YFt2aYOVGKtiPpaCmTepmgJFckGIJRH+KTz83S6jSoXL0DScqyhQD5x4VoT18TkDQlrSVMv/oK1abrlq//dEDxiikcs61pKjdcG/zHBjvnCV55NvhY7FClhBUKtFOQP/kixV98l/rcsbBkISlezIKph8fRWr+B2h//MXbHFaiRaC44QckVirC8Fz44T+eXv2HuR3/DyJGDYWIW41Z2ae41qMZGUTEUktIZncBsv4rKjdejWzYjY8OYoQwSg/o02I/EgDq0ORX2xX24n5nX38G/9TrjU7MkrQ70+Xf3SKxhMVcSnDjmRytUf+93SD57B0ayYO+y9gTFVLTcZK8E+s4f49if/jm1Z1+iWvgYGKQvAa94VabHMoa+9dskX7gfI2G2uAhLfXcW+FgkFLFjCR2YmaHzZ39F7ehUMGASJZPE5QMJzvdFpYL7zA1Ubr8FqZZHkJ14RNZo07Eaql0/OkTzOz+gMn2EzHdC78XEWVtQpEux5q2lOTxMcf311L7+dZJ77sVcvRUmRtFaDU0rqEnwYtDEIEaQxCJZBTM6ht20kcqnrqF61aU0OwVmuoltdkJMKhPeEUa+KEIkrFVmuaP50R6yG65BhoZDix7naJGAYMxVwlG3iCBJlSS1NN98m0qrFe5YIOUkGkeVzlSL7MYbkWoWvh98z+Dns8SJW+wMEeoxBH7ovPkmevQI6kIId29KpTU2roQpcHNinPottyLDY+HrUxSctiRWntP58UMMTR6i2mkt+bwXT24Ul1ZojK2mc+891P/xH2BvuQGzeqS3St+1Ny3VANGkYA22WsVu38HIH/wDzDe/QmvDWlwST+8kGknLNEIPQ7xSPTJF88cPQWcWtXGBuasoLM53SaoSasBu24a5/CqUaoiSHK8yCVEhKXKKw/tpvfpaN07nkskvIz4WQoHitYM2W8w98hiVdjMMF4vO39UQzlAMyVVbkcuuDM5k3dtOXHopt2KponsO03ntFaQzjfhOqMAB40teFDQMTK8eo/atrzP6tQfIV4/34iLYnvkpNGGv53clgEQDpwkOb6I2xKW6906yf/x7zK9bR+4VMcHgGfjXOxRSUJJOjn/xZdzePXj1UTnvJ9WJISqY2jBDN99Ga2SEjnq0m06PNKnPyRpTtH/9K/zcfM+6fvJXnDE+JkKBEaH93gfYvQcw7fbAuokCHm+KsAA6PMLQrbeho8Ph5KUwVpy45LHuPR2My2k//hRZcxZvYwBz7dO/oqRIkox8bJiRb30Z87mbccMjwV+9DE4lxL1vPSKWOVmEQUuhrWC3X83o73wLt2YCb8CTL/AGhyiwxFFrzdP8+ZMYt2TqJ4YT0ATZcRWdyzcg1Wqojrhvr+yMolD1BfrB+7Teeid2ssHElhfLSKhoPSZYj2kVdB56gnqeY0wIA9jr5cHKWxjFpxlcdwNy1VaIp9yrDaF9ujhux1WEBsWh9ylee5okd4jaaDMq7VbB8KcCreFhqg/cS3LzDUhSJyWh4hXribTxC+LbhUsWzKB6v8RHbFwwS4B6ity0g+T+u2llwVCL973hqC8J75X5V97FHTyClG4ppwMDsqbG0B03UaQVhKCLBse/chi1JF4YbzYxf/NTtNUKzcOJesrZYRkJ1dfwXvHv7Gbu3TfBd4JT/UDmnQjWWfzwCJWbb0RGooLaTUZOnj0B0YT5dz4gaebRvhUa3IuQJ73Ylc4Y9JqrGLr3bqQ2AibQZOF0+iTvG8RggwgUqSX57C2wbXuYIS7S5Qz4lNQZ6rlj7p33o/Q+Df3GECSqNdhrdtDZtA5vQ2a8AZ8QazEuTDuP+2gf7TffDZOD43bQs8dp1uAJEBmjGqbm7aeeYnW7gcGFE5iMlOupiBhMYaFI8VdegWy7vK+BF7fTkhBCQ7QNledeR+bavTwEIdhFJy+YrSVUbr8VGVqDlyzoQGU6C2ZIp4jjPZIk6KoJqnffR3NoBG8HAj6V0VScIWs2Mc88DxolS7eVT2LaNj4c2QHYVWNU7rmVxlCKj+7kRiQcoybhEoFK3sQ/+Tx02mCK4+f/LLF8hCIa9ArIDx6g9eKLZN1lE13UAlYytDpM9ZabMONBl1kKxxXPse716CytN3dRlXiiipRGQE/qFeMVby1262Ukl18BmmB8P5kWpj04bRhEObAvQkxHELAV5IqtmO1X4QYJRbCwo0KmBfmHH8DUsWAeO0lzaDQG+G5wW6GwGemOrbQ3rsFkCeIcOLeoEFY8/uU3KN5/P5x9PHjDMuHEJTgdOCAXxHnmf/ZThvIWAhhSUgUjwSJcXl46tLZfhmy/liKp4mJmyvY1fY27ZCNKWNbJD+/HSo76Um/w3U0OZaWZtEJ2w63I+JqeTapv4bo/7TIP/fW96N19z5VXebtVCRtWV6/CXHczuRmOwzfRaS8H24jrbo6qmyc/uA9XRMe50nSxBMIvcVEdiyHBkpBMbGL0tvvIJe2dadxdDorDXqFU3BTTTzyOdCSYGk5h6ed0sXTOTxdljYpHDx7Ev/AqSaFBY9Xo3azlPWGhIq8PU7/zDszEKqxy3NM2+78dbHyShPmPDmIL7dlZ6EmoUn9xYzWyTRuOa0BciliDONnvZRrd4dMKlQ3rcPX6wJ2hnjDB0GmdY/6jAyRZDDRW1tMJEfTEKA8hyUh27GBu9RqUNErB6C8F0a/LYjXHv/Ay/qMPYzyEharBcmB5CCWx56FMPfFL6jPzIbb4wEkGQfwIDmVu40bMtmvAhB2wg6cenBK8khyYJHUeo74n2+KWIzSQtzlSR1eNLBSBpfE8TtTKJjpbhPYRVD1+1SitocqiCUk3fxisE8z+Y5g8eN2fkLXHg4BdtYqRT99GnoyEBW71Cy9R0A6j89NMPf4LJNqtlhvLUYfRAt6BQ0dJn3uBynG3Qntc0cYnCaN33IIZGw2j02CFnyqcozI5g3VLTbvD+XkKZKvHkGxZinpSlNmwxmAqCZW1EwN3RGiQquI8WaMDNg3PnkldCFCtkd14M83RMbQTh88+vbR0QbaJh50vooePhi1jZ/TC42NZalmwmLaltfNZZHoy2F5ixH+NcZ2CSPAUznF0/WrsDdegWbLA/lg2R3f4GCjuoBRRY/CTx6KELJuyvKsnjiprNmHS+oKxRPs+LSkU+l7cn+Lxr1DifmXXVDOq69ai0VoOQWr2LNYWUcHPznaHbGfPIICYRCv/ljGSe66lqBm8hF07InE3kQpGU6xm1Gdzjv3qGSQvTnGIPXUsC6FQRZsNil/+KozTKH5wCIsN7m3Gqvu+gFmzGk1CDJvgE1US4NQhhDNhwlGrg7+Ev2FrdtJbXzsXKPUXI/G9SxRNgwE4xLgKznwSPbPOCGKQSoX6bbfRWLsKMQZTmkZK+BRxSYi99dxzMD8b87rwtrPBshBKiw7N536DObgPgwt5HDQDqEfV0Fy3jmTbDqSMdhtFc6jO0yyb96i6MIUWv0B3Wrh9drA1S9kVsCyVsAjlGxa/G8r89XUi5Xiy8qRQ4oROEsz4Wuy111Lgcd7h4gZ6yjepwXjP0OwkMzt3onm+dBbPEGdVl93itzu0nnwSm4W4RQaD7ZfbcQzzahi+6zZkYjWI6b78tEjUD/Wo92EZTukNfRLtUYbo91S+YRlr7jhYUBYtCRMroHuVGV443ixcRTw1LErFVhm+917sUB0fJV93yzyhXkQcST6Df/w3aKdzBhsnjo8zIlTMYihIp6D10uskHx0EpzGoQ5gSQ0+1yUWZGxsnuf5TMFTptm1/P17qOhG8emyWdgkVzAS9hlPxqPEUnRmU/BRSPBv0ch38vUA1x7fnwk6eRaSKlwBpJU7jLfY0SbWgngSkamHtJcxevYM8tq51wYQS2iQMcbYF2aGD5K+/iinCsbvLgTMilISOH8jSbNB88jdkrQJTWMSbPonQuz9PMorrr0cu2YgkC1+7FIEGPy8JK8jESE/ZHWw0CTK0dewI3n3chAL6yKAIWhS0j03GhuzZx7pSinBkmxsfh3g0ycKF6FND11tKCEtcIyOMfuMb+OGRmFqpP/quKBCXYl2L+cd+DnNzA94gZ44zIlSUnBhXoPs+Int/d9xREqeqkVClVFeEvD7BxBfvR2rVXiJnCRFDZ/UIzgaJEEgYXxrTN6q4yRloFcvwxpOjf5DTRk4xOd1HchaV2xlDvnockjOhUg8Lnk0sZu1adMsVeAdq0oW9VgBjSXBUPvgA/8E7UHT6UzhjnDGhUNBmi6mHH6UyeywGHektrVAWUjxOBH/lVci6S8D0r231N35fRZ9qy6vHrZugSHrnwSyoN1XEK+lsC2ab4Y7jvHK5IP2TppkGyVw4iTRsyix/Kalv8GKRNWMQS1DS7qygQLXCyD13U6Rp3NRaukL3rsQrmW9x6LGH0VZzWSrkzAhFWEfTw4dJ33iXxBBPOwgVJYRZjBeHGkdrOGPsy/dB1uspsYqXbte+7tZPkEGIMaSXbCRPgu93/LZ3abDAV+Zb6LHZxS9aKtGzhYDRcNqozh4jaZRT87i21jW8BdcLby3VdROxhwaaLQusheuvoX3pJoo49Ieky0JH5hc5w3v2owePQRG2tveG5NPHmRFKQTsdph/5BdVGI57JFTY2lqQCi9rgRNfaugG57BIkLXd3lFpFoFVJrqVwIkKpsdQvuRSXZEFnKXWp/gtI2h387o+gFafIx0twmSDECH1730fyoJ+oCioWJYn+YQbEUqSW2ro1IT+lG/rZIlolpFIl+/xdzNeidatbJxK31BtSn1A71mD+4V+jzU5UsfqH6NPDmRHKe/TQJLz6BqJ5sOAPQjweITcVJu65B6lWFzTk6c1lFkNVcd6F4SJN8bLE8rKkQIJBab27Cz/XONOOd8oobeV+rknjnV2IL1cKQp5VCMFAEHIDrXoGtXpov35Jcpb5NCpIUqF2w42Y9ZcG95hoTEXLabEABusV/+Yb6KGD4UTRM+MSnCmhtNOi9dSvSKeOor6IhuFo9e3dhWJpbNqIufJasFnfbwFnR6mgWPqKpXrllhBhjv6GECADUrxz+AP70MljAy11lq22BIK3kqAHj6L7D4U9eUhcJw8rCF4M6g0tgdEdV/Wa4awrJMBDL1rMyDjZLbdRGINXRX0klY9XyB1y+COaz+1E262zyscpESr4Bsbx1Sk6PYt78w2KvBF2xS455VSUGrU7b4faUG/6cxaZ7Uevp1vkumvwSXKcma9grSWdmaKz6z0o+mdbSz5wljCIU1p79jI83yQbXP6gZ5tTW8VcfW3wf++/7yzqqSxVaawUk1C57dP4NRO4uDfQCzFWRA/DidL4zdPo7LGgPixYaTh1nPQpjQxGFRxoq6B44VXS3R8wjInHwg80jICz4FZvoH77Xfi64MXFsIh0/wb1PTiMne4QaBASDVIqu+oaZmVwl7GCNIA2Rguqvo2++SY6OYVTpRMGpr77lwsGpmcxLz9Ptd0IHpR9qwaJKtaFnQIqNaqbt8dpvYnNcdImOSHCIBZrwoQoykwMM3fz9TSqaQiy6JVgT9CupDJOGZ06TP7GS9AqYhyI08dJc9/tLB5Qxc/OcvRXT2G9x5wgIkrLK/a+25CshvVhuCvDMy8Loi2ssMC61WSXburGklp0Uwxp5j74AHf4IA5HDGw4cP/ZQ9Sje/bCnr0hwNpAeb1oWJGxSn39WmRj8CL1A9aqs0FJqvAPRbKMNV+4nzyrU5Q24MGyCxhfcOihn4cgaQPG6VPFYAssjTKUinf43e8wfGg/iRGM9K4FtyMUE6vJbrsp6E4uRIMK6N0rSOgJZzL6iIJtg4CvpKS3fpq8ki1ORoI+ISJUZqbIX3+JrGhFOXlmvfD4UExzDvfi82QzU12/b6IkN7EevVGKzOJv2xHiS/XJplNrkFOHiIRINqvXY2+6iY5JSZaYTaoYDJ5VM9PkL+2EzsBBBKeIU8u/hAZ0M9Mc/vnjZEXwF++/wXiJEignt4K5/eawd79f/vY+nDUUxYknQTFiSa/fTqeahjhJaAyatPBdxhU0XnuN4vCREL81xu48O/SFy/ZQ7D/AzOuv4H1nYYfph3ra1YTkM9t6wds/TmjQmUa+cDdtk4aAJYteKWFnlutw5KkncceOdQ2xoWjHN+3045QI5b1HXRO35x3Gd+0lzU2vEjUGg0JQUZrimBuqMXz//VDJ4mwj0MgSPAx6OlM5fT19ngXNqxIaTSDbsB67fj2ukkY/pGRR8cQL1X1H0ZdeQ4qCMj5eD6dSZYOI+qUCuUdefoPhyRAYRAn7EaVvDc8Y8InBTazBrNmMtw7tru8t16C3EEpQ0eymDXDDdvJqHn8w0dAa9U+1JIUysecg7r0PoRNNCP3W/5PglAiFCcssxbM7qbTmlyx0mDlAIjXklk/D2Cgk4eDl7nrEqebqFLEgOou1mDs/SyHV3ibRAb54I5hWm9bOl5Cp+WXNjweKI0eZ3vkSpl2EHcwazmqnr7+oKu1alcrXHsAkNcw5CFEfIvYpklQY/sLdtLNaz/GvDyoWo5ZKp6Dx1LP4qWDlL4fkU8nn4lSXgEHR/Qdovfw64lsxlm2JQJig9qbk1XEm7rwPycIRroO+zR8bxFDbcT3t+ipU00XsVVWMOFI8yfv78M+8AJ2uE86Ce08HPoYnMq6gePYZsv0HsIAV6V4mehIQJsocq1aoXHttWNfUrK+5zkBUnwrK1QtJybZfS7H+MvyCNdVAg+ACFE6f57338Af2dKXvqeZqaUIN1LE2mzRefJFkfhYVh3RtOd07MAheLO66azGbLw2V1Z+Lj6muehBkbBVDt32GIqv0LMJ9MOoweNJGg/zpnehso7cU0cXpkasg7OJxc3PMv/Ac1aIdUotJapTeSPDPKqoJEzd/ChkZi3XysVZKD2Wou0qd7LN3kSdJn6cr0fwTIEDamqWx89mwaNxfoJNgaUJFhO04iu7ZD08/T9JxYRNj0vUV6d0rSl6xDH/+dnxWBt0KFdnzARok4mBjngVEoeZJ7vwUeaVCUbTDKZfeR17FExswQdrv+5D24z8HHxz1Q24H83cKaIFttyke/zly+ACFK+KJDSU3JagDFKgvaI6MUr33vp7u2EVZF8tUH/0QguHUghhL7Y5baU+M0cwIR/BKYH0poUQhayXw8lvong/jMtepdbQlCBVTjJ1H2jn5O++SHZuikmRAMiAuQ4ZcauGyy0iuuByxPf/wsxtQTh+yYTVux6UwPhS+KBVmBI078EQMSadD46WXcJNHoev8oqfdoGkG/sBh5p9+llqrEzwuNbyNmLKPi7WuVkcuvxx7ySWx5s9h7XT5KsjoMPaOW5Gkjpe4qD5AZqNgjk7TfuMNmG8uMg0dD0sQithTFXUOPXqYxs6d0ZBZBrdZ6FujCJ0kIbnjbsjqcdZQ4mPqdYsgQIJWatS/+SXm63U8YTYqlH0k5EPQEAr6wCHmf/4EFGGT6qCZ4ZTQaTP/6C+oHDlK1nFhj2DX4yIoxNYrzmTMT6xm+EtfDiykXPk/fRKfNYyh9plb6aQjKAle4rlpuO5IIrbA+oLm8y+hU6UJYfBajCUIJWEblISKL95+k2z/3hieMnhlhim/6V1GkPFRqjfehNromtGlUnn/xwsFchGcpMi6tSRXXI5L0/hjIEsvH2HWU2820Weexe3Ze+rtGuuxjDLj336X4pWXyTqt4EAzsHYnKMYLzlRwmy7Dbt4MYj6WXbunDBHM2o1kN96Es5XY2QbGFMnJ1FE7eJj89dfAxU53+oQqofi5Jp2X36I6H2JW9mIdRftF3LLkszpy193IWB1vQzj50Hj9LTT4efkRcmfRbIjKV79Mc2wcb220WPc7sCmIx2hBbfIo8z98GJ2Z6Q58J4UquAI/M0/joUeoTR2Ljv7ae1ffVXhoj48x/sX70EqIPRCkPB97nSwJUbSmJPfcQSNNcNrp0x9LMQBWlazZpvHaS/jZo9FJ4MRYklDBwqv4vQcp3vkAk0cy9aUXRgeDk4TZap30Mzd3182CTbV0citb+uMllMQgcgZF1cJlW+D6ayiSStfvJ6AMouHAeNLCkb75Hv7Vd8NC7kkqzQthC3mRUzz7EryziyyPuhNhiOsnk2LQoWH89isxWzdhbC+ab0BfnXTr6uOFopAWJFduxmy7nMLG7yDmJ4wyKoJ4RT/4ELdrF3IKivlxCAWSN2i+9gJDrRYycJKmisOZHC9KJ02p3vZpktXjoEG9W8LV7Rwh9LLEpCRZhfoX7qaxag3expPFhQHpEYpVmZ+j+bc/we/fu8jU0I/uU97j9+2n9dOfUmvORY0xKOODfUbF0BobZewr98elqIXB/M8HAvWraJZSu/tO3NDwAvOFxs0TKkGw1I816Lz6PtIIHgradY9Z3AOWJBSq+Llp9N03sM25Pukigd9S4GweBFB9FPuZ6yEJIfpEJZy8Odgui9/9sUEg6AmbNiGfvpFWfSgonn3vFxWknCq7NpWD+2j/7BF8uxOWmpYiloIUYdWg/bc/o3ZsP9Yv3C2i9O3LE6E1VENu+RRm/doYvm/B7ecFipDHkMeVbVdTrJoI/mTlPAFIwtkACJAVoG9+gJ+cBhSPhuC6SzTokoRymqN792EPHYxnQvbxiTAHNqqosci6dSTbtkISLeP9xJG4kbH/OocoKhWGPn8nrbUToZG1f4+shNmoJ3zfmKX55E7ab7+FqA+9WPucT6JdUHDkL7/J9Esv4drTsWp7FeslxA/1hKWe1voJ6p+/C59WwjtPZOo6R3VUShhBkPowQ5+7C5/FmWeUtFF7CWYGQI5O4t/fhfq89N6P9FmY4SUIpdhOjr65i9ps8CoomVteRiHppPikhr3vc7SToCv0pt0m+pQTPaBOVIsfHxIRZN0Iw5/7DJ16DJej0ShURoWK0UkshuF2zsx3vwOH9vXNevr+5T0cOcjc93/McJGTGotZIIrLBhEgoT1UY/SuOzBr1mKSGMuhv8b7Hj13NeQRfDjlUzxYh1x3I+1sCMX2hu0y0EeM3lxtTdHe9TrScRgV0uNkeAlCgbZyOnv24Tp5DCwYneu7l0XF0qnWSLesIZM0ZKQrmbqWrG6a555YgkGxSUr62c9QbL+aTlJuMu0TBWUfiEEk6pPTzH3/b6E9Bz54TAlKIR20PUvjew+RHZwkcYrxSXfHT0wE68GqIbcVWju2Yz53K5JE88VJEDrgx4/QVHHOliQk61fRGKlSmAT6nCf6YbxS7N2Pb8Uh/jiSdDGhFNx8h/zwVHeWZnzpKhoCeylKkVh08yXI5rWY/pA1fS9aaK861ygZbjGj49S/9EVaa9ZGH6iB2jDhEEirwnCrIH3hZTrPPA+tPIp/R+KbNJ96El58iSHvqPgEoQIysAgu4MXSWL2KkS89QFGthfjhqj3K9He+84Dy9UJcQssME3d8Gl+roD5EJ/W4sHRVGju9h8k5/NHZkMgpEwqQyWMkjehEpyya+QgGqhXSW64LhxHKqTlfnXtIGNokI9m6ldrtt1Ik5e6bxZFyBcLG0PYc7i//FrdnXyh7kZPvfp/pB/+WpDMPkke/OIs3UYZF9dGpp50l1D53K+mVV5Imw32qwMqAGeBzYUC3XUGzPMOv/KEUEALGWCodh3x0EC33gy6BxYRSsLt2UZ+f7bpeEPWmboAMrxSVFLt1CyrBWU7KHhpRBusp5VOIXLv4dcuJ3juk2we7OaimJPfcTXv7dTjs4o5iTNx5EiLHp8eOUvzZd2FqGhpz5P/pB1wy2yRzBSLBhoXxdCxh17LasGKf1ulcu5X03ptpVyvkcS3PS8/k2d9QvbyfK1ke3iL0dF6LIVt9GXk6FMRFrJbSxy10Fo9tzdLZszuEUVqYaBdL5n/+yCSa570yD3QwFZgXTzo+Etb2jpf6eUVJrAgBs3aUyv130hifQEmWsG0EiBgMit+zl+m/+CGzf/EjKnuPYNtBoQ03heErc70VevWGudUTZF+8F129FjBhZ04fln7juYWUq62xegSgliHVGt4G29Ng1SiKLxytuflQ3oU/dxEI1f+w97g8bDIKDI6Pau/yRmhXMxiqY7BhX9mSvW5Jvp4/JEJ2/XbSz9/HfFqlJS5sfIwbHgOiZBWh4pTq00+T/eZZkk55kvtCTwsTY5ypQHskofbAvVSvuRa1VawGn9Kwe7BfAp0r9ftUEBrNVRNqayfwaXDvMWg3RoOoDzuRVaHVhhPEk+q2eBgBFF/k+FZ5elQf0/oI441heN066M6aVkrlnALqNSr33EHnhh34JATvCIfuLOgz4TIeow3EtykSh7eLz6wJUyJPxwjuM1eT3n4TktVIEJKuBFgJcunEUJtS27AWTaJk768INIoHG0gVzYtLYSGhvCIdRfJwcrf2jaMQ3yOg1jC8ek14XKIRcEmsFKJpnKlo8P8ZH2b8q1+jtXoTLvHMF21QhyyQVGDw2BMeVKsgTQrjmd60iepXfhsZXRu8L8pbpPzfEiJ8BcGiMFSPp4BFfdjEWWCEKJjchfgHx+kjC8YkiUeKGR+NETGxkliechSMSrgSSXOc1GFliXcJtSKpRbZcwuhvf53W6BiV2gjiJJzgvuAC48A6sAUY53sW5Bg/U0mYr9UY/+ZXMRvWh1DXJ6mRlQhRFyIPxknYIt5HadV1ElhqaWqQUBDJYsyiKum+oysGyzcunfBKQ9kpIAxxDFWwN24jveOzQC1Y+kUDg+IMruu+XH42pUJeFt/gR1dT/fIXSK/Zik8tRf85f11IrOqlWmoFwXViMI0lLJuBTWHTqLWRI4ux8Ntu9LmYWkyje3WrRKFTOlwdf0BYSehvyq5Br1Invf8+Zq7eSsemYILetOgSH/UsBXxXBSjE0LlmB9nddyPD42F1vv+lFxBUPK7VRDXGPBgsiQSppJUMbNk5FmPhkAfhaPk0mOB7BIqI0sk4pTU/2xtvF2mqJRalcJ4Q8hDd2rqfMAm6ahVjv/N1jl2yGm+TGLisJ4i7V2npjqLeIRxeO0z29W/AqrU4k8Yl0/6n6Pvbh9K4s2KgiCjF9GwI5LFE1tRAYTOS+sRAWMuF6BKq+4/UUtSysBuiv14iBBCvtI5NxS3NS7y9i5VCKJbIQ9hxLMZi161m1QN3hrPtFjGpvw5KvVLIEdY+cB9m7QRFksQ4Cb2tCQux+N2LvzvPcAWz+w8OmFB6cKrkaUZl4yZIzEl0qP6yGcGMD5FXYui+papHPTrTQOebg2diXFjQEO+AuSnyt97C5P64DR28WMPsxyMkxtJ86lX0yGFs0STR8lCN/uf7a27pdFcK/Fwb0+r0+YEN5FcdeTWBjWsXfj+AJTWroS0b6dSq3VldcHuNP0Z9Kus4igPHwgRuZdfVAPoaWRU9doy5n/yU7JW346lWg90nQDTs7lFCea1X6u/tZ/6730f3fQSuiQn7iC+QCulbs1PID05imjHiSlhrWQAB7EgdxofjF0uXcUlC6YbNtCp1irg7pLQEdw3nKmSNDsXuD0D0eNJvhUGDQl1WpPPosWlaP3mY9IXXsJ15wlm+5f1B5yr/A6InpgTnQjwiHSpvv8P0936IP3IYW+RYDU92ybcUyno8jwgliLzxir72FiPRhbtrCuovgIdkdBgzWoMTlG0xoUQwo2sxE+ui26xioqqkkbwASbtN85mn0VZ+3HF3pUGJrhk+RyeP0X7o5yRP/go7PYUXj7Mu7vKNQU/7LuJ3ENe6cBhysqJJ7fV3afzgp+iRQwvO+42eZAszsRIQV0GUuHF6Zg52vkA2P491ZY4H2jSrwPpLkFoGiwVYF4sJBdjROvWN6xFjwUjYLVVKQgGMx1CQHz6C7t8fKvECgI9kMHPzdB79NfziaWi1UBe8EAcXRJdCeU/oo6EnV9pt5MkXaPzgh/jpw8HqHg265dbJFYVoNbEKxjuKA/vJp47hnevVgQTSAShCo1ahsn0rpGk8emXpylqSUKSG6pVbYLgeXi4GIzGqkxImzdJhuNkmf/qZMzmY7DxAMLnDTDXJH3kafv4r7MxhRAVbuq105yi98chrMBGEXjVYXWE7lPFKzTrc8y8w91cPopOHoWiGYTGmtbJqSAAb7LaugXvql2TNRjSplBEJyzoI3rpu3Rq44tK+bhJjTA1gsIYCtIBtW5hfNdJnW+khGDo91XaH4qUX0QMHoghbdOt5xMB6k1eYb9H40aMUf/MYOnWItm3Ftcier5f1IYCax1BYQ3v9eppjozhjQ+jsPhOSxoVyBDTvMNzOqTz/CrPf/Uv08BFM7rDRrFPKs5UCBVBHsf99mq+/RJJ3gmpXKtsa1B1EKRIlufxS7MhYLMPxG3kJQikYT7JmDfaGG2lYRTWIwvICwmF/4qjMHCX/2cOhwfLgeLVwH8i5QOg3C68ewX3h8dNzzP/190ie+Alp5yCJ9VRIwhpeNH2IB8ktopa8VqGxaS21//lfk/6zP2J6YgKfZnhjQwSauGwc3HcMVhKsh0qzydALbzD7H7+H7j0c4ib4kKeeyfT8okvuvMnMTx8nOXosrt+WdRYlMuCNMjdSJbv6SrRWw4pFgi/Fkl1kCUIRopSkKSPXXUu+di1+UXRdixK2eGuzxezzL9J54y2QAifhZLrzW21hWlqYcISsHDhA47v/FfvMc9h2G4MGn5/+qa9KCLZhDZ3MM792lKF//ke49WNUrruK2j/6FkeHRzDO9oKAR1cOuh5PFlQRV1B9azdz//mv8O+9i7g5rLYx3QfPNxTxBe2XXkXeeI+0Fc8eHrxLQNVSuXwryfYdiA1BJI2Waw6DvFjqGwRPipJgNm8h3X41udLdpIAGl9cYVhPrlJGZDtPf+a8wexiLI+zeP5/QELsgb+N372bq//0O2W92Um3MR0e3OHsjRJordQY10K6ntDavY/SPfx/ZcnlYXkpTap+5kfH/4e9zuG7wiYBz0f86emYQW8CH3TMJbSq732X+P3yH4pnn0U4DipVBKAFk1y7cf/tbKnMNMltBRKOnQblNXlCT0q6Pkl73GczIeHhyCeL1YwlCEYJGiIH6ELWbPo0fG4vpaJcqpbAzCpnPGT14iMnvfB9ptrBd0dl3LTtKNbdMPCo3GiVHntN55mkm//2/p7JnN4kWUUFOwukLcc9ZIIGAerxx+I3j1P7o97CXbUckIXGAs3gs6T23MfL7X+XYcIrHUkhYTC6hIqgJVijrCzLfZGjyEK2/+hGth56A1jzqF5NqURUtU31p+b8u52PCk8eY/+73qU0dpZ47nAU1ZYim2MQxSnJz43rstdfGc3MGE18M++1vf/vbg19C0PZVFBkdoT03C7s/JCnCNmsvSoKJ5jsB8VhpIpNztOdzKtu2IWnZWN0El1lsBXtJ1H5QFcSDKzwyeYz2D3+C/9uHGDp6jIovQs+RUlSH8nVd58ThhpSZTRNU/qd/TnbFdsSmQVcSCS7OGMQm2I1bSGsTND/4iCzPw7EkGpdkbCCUITSMGINTJWm04d0PaO59j2TjBIysRky0qWvgc7d6eoU6c8Q0ukl5kEJDCOuZIxz707+g9ubbJHkn2BlVEWwY9SVmCiEfHib72n0k11yFpllceurL3xL5XJJQ5TPeKybLSEeH6bz3PsnRJhhFTQii1VPQPWIgyaH90WEax6aobdsCMcSzmrDNaIn3nzlUgkKtIX0nisk7uLfeZ+o//VeSl16j1m5gJQbpkf5eFXOiYfpQpBWOXLKOiX/5z0g2X46YKMHKmijdUiR0KLt5LbJ6lPbuj0ia7a7duNwZFEgY1vxK43CSFyRHZ5l68XWoZWSXrEKSSvf0+G47LUMllcZZQjWhxiPaQScPcvTP/pJk52vUXDhwHEBEuzG9AqkMha3SuuEa6l+5D+rDQaqXmTsBoUSXjArRD4VWg/aTO2l9578z3JoDk2OJx9pDiCAhQUFVUhqVGu0brmPi938HVo3jkuw4KtzZoVNAaoKCWUwfpvjZr5h58jlGGi2yoo3VPHRPLWcw5dahcCkFeZrSuOxyRv7o9zGXbj7+Ll+Nl/GgDm00cK++xdxf/BUjR6ewPlqYJXgxdJ/xxOk3qBG8ERqZxV96GUO/97uweQPGZog1Xamly1BXviylBpNGceAtZv/kr0nf30eW55SRDMrw0lqaQyoVfCdnatUGxv7490iuuQKxWai746zf9eMUCBXXvaZmmP2zv6T+9E6sdKLeFpgt6mLuHKrgMBSVERrr1jP6e3+A3XYpkgWr+3LBq8d5JZmZob1zJ1OPPcqaySmKySkqtRp5AqkPJ3p2W2kBoQy5yWhcsZmRf/EHuDWrSbOhJXsdxOdjvIZSbdK5OdyR95n9//4Lox/OBFIl4WUhmaAUEGN9IwZngou1k4TGxBiV22/GPvBFZGwEkyUUfTtkzhieIHnx2Ok2xa+fY/aJ71E/cJQkV9qZUMkNSVTCNZY5VI2QG4v8j79Pes8d+KE0GDt7MvSEODmhys6d5+jeDzn6H/+U8T17SX3eC0oVZ0yID5sAVXGakJuMfHyMyratpF/7ErJhHZJVg8ef0lPtpYyUWw4e0lW6pbtxyYSvirBF2jfm0V/9mpnndmIPH6XaaJAWRRDjRuIG1Agf0ixD7aixNK1BbrqR+u/+DqwewScp9hTC7bi4ZIEEyVN05uDD/TT+/EHS3bsQ3yQVsM7gjVAYIXWRXiaULzwaFqrbWUpj7Trqt9xEettN2A2X4NNKtHFFlDpa5DUDTWsIeen+6hWdm6P48EPaDz0CL79BVoTJkuIpjCEt2yw6SYpWgtknzeCeu7Df+C1YNYY3RH3zpFUDp0yomBHJ53EfvM/R//gdVn80GaLFmeAea72NN4dihy2RIV4n1jK/Zg3J9quo3flZ7Ia1SH0E0koUFv2O/SHbpbutiboJrkCb87j9h5CdLzP70ktkk0ewUTG2KmFJSANBoU9pi5HXFIsXy/zIGOaOm6l/5YuYNeE0qL5XnxC9OV2AKEhR4Pfv4dgP/obqq29RbbSwnrDmFZSq0GjlllwIJgcN+9scCe1qnXxiAtavZ/ieOzBbNmDGhpBKAlRBbFgXLPNY+vqhWApE22inwM/n+Lc+RH/5HPne96nMHMS2m6ikgO0GLOkOFvEfIhanhpkd25n4w3+KrA979EosK6FKEaqmgE6T1ouv0/izHzIyM0PqW6gpMN3hpGy83lp76BUeTVI6w2Po5o3YjVdQ3bgFNq9HhquYzCLWdgcLvIYzcKfnYM8B8gMHKPbswk0epD4zjWm1UGtRjSdiIWHoha5eUCblXDh1VNIh5levpfLVB0hvuQlGhxFjFqgGS0mAfvT/rsQNxCjqW+iRo+S/eIbOL55maHoakTyExTdBwe8nFMQAGkr3YGtVxRlDY3wExsbwayeor19DsnFr2Ik8Xoc0SHcpPUDabTh6kOKDXfjJGZp7DyCHp5iYaiCaI9IJOp+acHULFruGCSXxtZSZLZsZ/0d/iN10KWR2ge/k8hNKAVG8KNJs0Xn2VeYf/DFjRw5gaIVZUZnbWNs9SjmUoGc5KnhJcLZKXkkoqhnp2DB2qI4rxS8gnQI/NYNptknbBaadQ9HBmAKjrVAJYkEtxoTt8GHW6RdJHIeiSUp++Xayr38Ns/3ysAetv6dGlBLolHWY0mqgCoVH5xvkL71K56FHqXz0IUnRiWaHAQkFQbfyxMOXPJgOKg4VgyehMILahCKpkWcV0rEhfJaGBW1VnPd02k2kMU+t3cIWHvEOEbAuLPUIccrnTTDsS+ji3XwYQ2FgdttmVv3jf4LZdDlik6hh9Cpn+QhFH6EINa0K0u7gXnqZ6R89SP3gPpI8BwVbmuXjDLAcusSHgwedJOHsOCN4dSEGU9zKHnISey1hrC2ntJIkeE8YSH2Iu6BCCJJVqoy97teVli5NmR4eYujWz5Ddcw+yYT2a2NDGlOOGdqurR6hTqb4AH/paHG4VzRv43R/S/Onj8Nqb1OZnMRAWXk0YtpwJqwymiHkVB9IG4/Hl0pZK0Lu8RkGysIFLzyUkpk1pytHoPiehbn3SNd4qOSpFILJUaGY18u2XM/wH30I2bQFbibMOWVQLp1Ijp0Yo+ghVpqqKFnO4D3cx9b0fUnvnfUyek3gh9RKnmUs8X6KUIt3X9y1hEN7TdXYrh7Dyp3ibiounI8Qwfmjok2Lw3lIMVWluWU/tiw+QXHcN1Gp9OkMYN0I2tCuTeoQakFGD5e9D+Uzpp+nxaFEgx5q0n3qW9q9/SfXAYSq5Q4xHxVBYsD5sAwxS1QeVX02QaF2TTNRLZbGFvQst67E0wvat4kcpjhdUHF46qHGITyjqExQ3Xk/tm1+HdavwNum2S78ivqjIJ6iLUydUP2LeHTmmPYtOTtP6wcPkb7xLfX4Om3eC6O0fTwbfskBx0Uio8rdweUKnHJQWPUL5LhFEXVw+MbSyKvnqNchN1zB8/72YVatQW8c77dOZSkKVLz1zQoXchxtKjwKNJ5BLofg9HzH1k59Re/sdqjOz4MLxusGkUTZ+JBP0dEANW/0DofqHiQFo+T9ZFMwjnHgV6tiL0jae3Bry8XUM330nlXtuQ0eH8WnWe28kVPg7UOT+LCxRF2dEqNj8QUNShy0UWh3c868y98hjcOAjhpuN6F99HCwykvURipBZjVe3zcuflsixx1MY6IyNMX/Vlaz+xm9hN66DtIoQAoN1TRxlA4guIaFC4sclVInB7PcGICR+8mjXE1Sbc7i332XuocfQfXuoz7ZJO8GzM5DQ9chwuoTqIo4M/TAWpAxsaWgO15nbtI7V3/xHJFdtRtPolbvwqS4WEOpEN5X/PBNCdUV8OduIH7wrMMeOMP/YE+gzz5NNTZPmbUSLuIbW33sGWqRs5BLlQaELCFS+OZBPICivWZX2UJ1i8zpGvvJ57OWX40cmwsmhSpACJqZXEir8sKyEWvivuIPGR4KIQlGgnQ75K88w94vfYD44TK3ZICuC9b3MSum0F+x7ccjrZbE391mQp9KAa8KN1uLVoyaEAW0O1fH1IWpf+ByVz98BjEOaUMQ0B0rbxTkllIltFRqmTDXMdtzej+j8+tc0nn+ayswRKs3ghKbl+mLZsLogywHxKxXFG+2eMwNhmHOlzp9WaGajZJ/6NNk992EuW41Wkphcr9eVqQe9oP9dgVQLcbyqPT56OlT51v40B8qnHrRAG3O03nqbzs9/jew7iEzPUW12SBx0suAZmiAk/UelGQlljxEFe4SKyrgSdCVN8GnGrPW0hwyyZg2jn/8G2fVXYsaHwEqM1seiob7EEq1ySjgjQp0KvPfBBjN9hPZLr6KPPEE+eSQE4So8qfPYQhEftW85TltK6GGFtXSSDJda8swwduXl+NtuoXr5pfjVazEkcWVlsGp6+LgIVaaymFBLNYtHcXgcznVIfAEHD9J+9T2Sna/T+vAAXnOsc1SKgsTF4KllM5VJdj+GilMRXGIorMUnKT4dJtu2FXfXLVSv2YZWqhibgHeBPWXwqguFUL16DSJbdRo9dITGniPw+nt0PtxFZ/IwtUJIO/H8lSQY09R71AfneF9N8EMV6ps20776U1TXr6GyeS2MDqFaRUyCMwYXZuQEm3vAomFrBcCXawhRMnsB0RzVDqbVhqkGzV178QeOhJOuDk2SuQLttCAvwnkr0cQiCDZJwaZotYJfM4Zs3YJcvZXaFZfC6Fj3BBxMUBPUQC4QVug4ow50Inx8hCI6+tA39nsPzuO9x4giLofpOdz0PJ35Ji56NIoINk2oTIwh43WoVnBWsSaj8EU8QszgJDhVGA3DwWAvW4mEgqLPECW0Td+hRwiFOrLChUoTwHVgegY/O0NnvoG6OHkRQIUsrWAnRtHVY2HvnIImaZAwHkCj1FYkDyOBT0IdX2CEOhXEVy818lDK3aUFr8bwx+GWMAacVKFeOqlzjFjY0vAb8ySEJUcpre7ll+Uj9JtVlihI/KpcYC/PYy/XKgzR3ai0Dy6RRBj4zo5g55lQZ4cy6+WEoLvwOVgpK4pQLEvDLYWF/XKhvO6+rWvr6vuxi/5njsu6E2L5S3UOId0AacfBwhrufT7vXeiCrvYT4pNbsos4L7igh7yLWHm4KKEuYllxkVAXsay4SKiLWFZcJNRFLCsuEuoilhUXCXURy4qLhLqIZcVFQl3EsuIioS5iWXGRUBexrLhIqItYVlwk1EUsKy4S6iKWFf8/NABoQdlhqkwAAAAASUVORK5CYII=;" vertex="1" parent="1">
          <mxGeometry x="-536.83" y="311" width="85.83" height="101.47" as="geometry" />
        </mxCell>
      </root>
    </mxGraphModel>
  </diagram>
</mxfile>
